<svg xmlns="http://www.w3.org/2000/svg" viewBox="0 0 731.03 456.81"><defs><style>.cls-1{fill:#fff;}</style></defs><g id="Layer_2" data-name="Layer 2"><g id="Layer_1-2" data-name="Layer 1"><path d="M529.46,215.08,580.3,160.6l9.4,9.41,10-10.07L590,150.2l75-80.38a12.89,12.89,0,0,0-18.85-17.6l-74.41,79.72-9.8-9.8-10,10.06L562,142.34l-67.89,72.74h-8.46V132.3a132.31,132.31,0,0,0-264.62,0v82.78h-8.46l-67.89-72.74,10.14-10.14-10-10.06-9.8,9.8L60.61,52.22a12.89,12.89,0,0,0-18.85,17.6l75,80.38L107,159.94l10,10.07,9.4-9.41,50.84,54.48H.83V225H730.61v-9.92Z"/><rect class="cls-1" x="243.22" y="130.61" width="220.32" height="68.17" rx="34.08"/><rect x="261.58" y="158.49" width="54" height="12.42"/><rect x="391.18" y="158.49" width="54" height="12.42"/><path d="M0,359.84l11.78.37c11.78,0,16.08-3.37,16.08-12.34V263.72H60v87.7c0,25.24-14.4,38-41.14,38A80.59,80.59,0,0,1,0,387.14Z"/><path d="M107.71,345.25c7.29,9.72,15,15.89,27.49,15.89,8.42,0,12.72-3,12.72-9,0-5.42-2.81-7.11-12.53-11.41l-12.72-5.61c-20.38-9-31.23-20.57-31.23-37.21,0-21.88,18-36.47,43.2-36.47,20.38,0,34.78,9.73,42.26,24.88L155.4,302.8c-6-9-11.6-13.09-20.39-13.09-6.73,0-11,2.62-11,7.86,0,4.48,2.62,6.91,10.66,10.09l14.21,6c21.51,9,31.6,19.82,31.6,37.21,0,23.93-19.63,38.52-45.25,38.52C113,389.38,95,378.72,86,361.71Z"/><path d="M268.91,261.66c21.88,0,40.76,10.29,51.24,26.56l-10.85,8.6c-9.54-13.65-23.19-21.69-40.21-21.69-27.86,0-49.17,21.69-49.17,50.3s21.31,50.3,49.17,50.3c17,0,30.67-8,40.21-21.69l10.85,8.6c-10.29,16.27-29.36,26.55-51.24,26.55-35,.57-64.89-28.42-64.14-63.76C204,290.09,233.94,261.1,268.91,261.66Z"/><path d="M410.85,261.66c34.59-.56,64.88,28.43,64.14,63.77.74,35.34-29.55,64.33-64.14,63.76-35,.75-64.71-28.79-64-63.76C346.14,290.09,375.88,261.1,410.85,261.66Zm.18,13.47c-27.86,0-49,21.5-49,50.11s21.13,50.49,49,50.49c27.12.37,49.37-22.25,48.81-50.49C460.4,297.38,438.15,274.57,411,275.13Z"/><path d="M608.69,263.72V389.19h-5.23l-78.54-94.62v92.57H510.33V261.66h5.24l78.54,94.81V263.72Z"/><path d="M652.08,263.72h77.23v13.09H666.67v42.45h52v13.27h-52v54.61H652.08Z"/><path d="M0,452.22c1.3.11,2.1.14,2.39.14,2.35,0,3.43-.79,3.43-2.85v-17h4.89V450c0,4.52-2.61,6.8-7.27,6.8A14.15,14.15,0,0,1,0,456.38Z"/><path d="M33.52,453.27H23.76l-1.34,3.11H17.18l10.67-24.31h1.62l10.64,24.31H34.86Zm-4.88-12.08-3.18,8.06h6.36Z"/><path d="M65.46,432.51l-10.64,24.3H53.2l-10.67-24.3h5.53L54,447,60,432.51Z"/><path d="M84.23,453.27H74.46l-1.34,3.11H67.88l10.67-24.31h1.62l10.64,24.31H85.56Zm-4.89-12.08-3.18,8.06h6.37Z"/><path d="M99.92,449c1.55,2.13,3.25,3.47,5.86,3.47,2.13,0,3.4-1,3.4-2.64,0-1.41-.76-1.92-3-3l-2.57-1.16c-3.65-1.63-5.78-3.69-5.78-6.87,0-4.09,3.4-6.77,7.92-6.77a8.58,8.58,0,0,1,7.88,4.53l-3.33,2.56a5.37,5.37,0,0,0-4.55-2.75c-1.7,0-3,.84-3,2.32,0,1.26.76,1.84,2.79,2.75l2.71,1.19c4,1.77,5.89,3.76,5.89,7,0,4.38-3.58,7.16-8.35,7.16a10.39,10.39,0,0,1-9.22-5.28Z"/><path d="M134.13,432.07A11.83,11.83,0,0,1,144.65,438l-3.69,2.6a7.75,7.75,0,0,0-6.83-4,7.85,7.85,0,0,0,0,15.69,7.77,7.77,0,0,0,6.83-4l3.69,2.6a11.71,11.71,0,0,1-10.56,5.93,12.37,12.37,0,1,1,0-24.74Z"/><path d="M167.8,456.38,161.61,448H158v8.43h-4.88V432.51h9c5,0,8.61,3.11,8.61,7.7a7.38,7.38,0,0,1-4.2,6.8l6.76,9.37ZM158,443.65h4.09a3.43,3.43,0,1,0,0-6.84H158Z"/><path d="M180.63,432.51h4.88v23.87h-4.88Z"/><path d="M195.31,432.51h9c5,0,8.61,3.11,8.61,7.7s-3.62,7.74-8.61,7.74H200.2v8.43h-4.89Zm9,11.17a3.44,3.44,0,1,0,0-6.87H200.2v6.87Z"/><path d="M226.52,436.92h-7.63v-4.41h20.18v4.41h-7.66v19.46h-4.89Z"/><path d="M270.64,432.07A11.85,11.85,0,0,1,281.17,438l-3.69,2.6a7.77,7.77,0,0,0-6.84-4,7.85,7.85,0,0,0,0,15.69,7.79,7.79,0,0,0,6.84-4l3.69,2.6a11.72,11.72,0,0,1-10.56,5.93,12.37,12.37,0,1,1,0-24.74Z"/><path d="M300.77,432.07a12.37,12.37,0,1,1-12.66,12.37A12.5,12.5,0,0,1,300.77,432.07Zm0,4.53a7.85,7.85,0,1,0,7.67,7.84A7.49,7.49,0,0,0,300.8,436.6Z"/><path d="M342.28,432.51v24.3h-1.63l-13.81-14.75v14.32H322V432.07h1.6l13.85,14.69V432.51Z"/><path d="M352.08,432.51h15.69v4.41H357v6h8.86v4.41H357v9.08h-4.88Z"/><path d="M375.76,432.51h16.06v4.41H380.65v4.85h8.2v4.16h-8.2v6h11.61v4.41h-16.5Z"/><path d="M415.47,456.38,409.29,448h-3.58v8.43h-4.89V432.51h9c5,0,8.61,3.11,8.61,7.7a7.39,7.39,0,0,1-4.19,6.8l6.76,9.37Zm-9.76-12.73h4.08a3.43,3.43,0,1,0,0-6.84h-4.08Z"/><path d="M428.31,432.51h16.06v4.41H433.19v4.85h8.21v4.16h-8.21v6H444.8v4.41H428.31Z"/><path d="M473.69,432.51v24.3h-1.62l-13.82-14.75v14.32h-4.88V432.07H455l13.85,14.69V432.51Z"/><path d="M494.85,432.07A11.83,11.83,0,0,1,505.37,438l-3.69,2.6a7.75,7.75,0,0,0-6.83-4,7.85,7.85,0,0,0,0,15.69,7.77,7.77,0,0,0,6.83-4l3.69,2.6a11.71,11.71,0,0,1-10.56,5.93,12.37,12.37,0,1,1,0-24.74Z"/><path d="M513.87,432.51h16.06v4.41H518.75v4.85H527v4.16h-8.21v6h11.61v4.41H513.87Z"/><path d="M565.65,453.27h-9.76l-1.34,3.11h-5.24L560,432.07h1.62l10.64,24.31H567Zm-4.88-12.08-3.18,8.06H564Z"/><path d="M594.48,456.38,588.29,448h-3.58v8.43h-4.88V432.51h9c5,0,8.61,3.11,8.61,7.7a7.38,7.38,0,0,1-4.2,6.8l6.76,9.37Zm-9.77-12.73h4.09a3.43,3.43,0,1,0,0-6.84h-4.09Z"/><path d="M630.68,432.07v24.31h-4.89V443.65l-6,7.52H618.2l-6-7.52v12.73h-4.88V432.07h1.59L619,445l10.09-12.92Z"/><path d="M640.51,432.51h16.06v4.41H645.39v4.85h8.21v4.16h-8.21v6H657v4.41H640.51Z"/><path d="M685.9,432.51v24.3h-1.63l-13.82-14.75v14.32h-4.88V432.07h1.59L681,446.76V432.51Z"/><path d="M695.69,432.51h4.89v23.87h-4.89Z"/><path d="M724.44,453.27h-9.76l-1.34,3.11H708.1l10.67-24.31h1.62L731,456.38h-5.25Zm-4.88-12.08-3.18,8.06h6.36Z"/></g></g></svg>