<svg xmlns="http://www.w3.org/2000/svg" viewBox="0 0 506.23 85.56"><defs><style>.cls-1,.cls-2{fill:#00a9bd;}.cls-2{fill-rule:evenodd;}</style></defs><g id="Layer_2" data-name="Layer 2"><g id="Layer_1-2" data-name="Layer 1"><rect class="cls-1" x="274.53" y="19.44" width="14.45" height="46.69"/><polygon class="cls-2" points="347.37 19.44 298.46 19.44 298.46 31.59 315.69 31.59 315.69 66.13 330.14 66.13 330.14 31.59 347.37 31.59 347.37 19.44"/><rect class="cls-1" x="426.7" y="19.44" width="14.45" height="46.69"/><path class="cls-2" d="M493,19.44V46.11L464.43,21.93c-5.79-5.31-13.68-2-13.68,6.22v38h13.12V38.7l28.61,24.93c5.63,5.39,13.75,2,13.75-6.28V19.44Z"/><path class="cls-2" d="M169.2,33.78a23.11,23.11,0,0,0-5.86-7.54,28,28,0,0,0-8.9-5,33.67,33.67,0,0,0-11.24-1.81h-32V66.13h32a37.05,37.05,0,0,0,11.24-1.64,27,27,0,0,0,8.9-4.68,22,22,0,0,0,5.86-7.26,20.36,20.36,0,0,0,2.13-9.31,21.27,21.27,0,0,0-2.13-9.46Zm-13.3,13.4A11.18,11.18,0,0,1,153,50.77a13.1,13.1,0,0,1-4.36,2.37,17.1,17.1,0,0,1-5.45.84H125.55V31.44H143.2a17.91,17.91,0,0,1,5.52.81,13.65,13.65,0,0,1,4.36,2.26A10.14,10.14,0,0,1,155.94,38a10.25,10.25,0,0,1,1,4.57A9.92,9.92,0,0,1,155.9,47.18Z"/><path class="cls-2" d="M370.24,24.66,340.31,66.13H357.4l21.92-31L387,46.2h-9.18l-8.49,12h26l5.5,7.93H418L388.81,24.66C383.87,17.47,375.28,17.7,370.24,24.66Z"/><path class="cls-2" d="M250.62,41.11v13H233a17.92,17.92,0,0,1-5.52-.8,13.47,13.47,0,0,1-4.36-2.27A10,10,0,0,1,219.22,43a10,10,0,0,1,1-4.57,11.38,11.38,0,0,1,2.9-3.6,13.47,13.47,0,0,1,4.36-2.37,17.1,17.1,0,0,1,5.45-.84h32V19.44H233a37.05,37.05,0,0,0-11.24,1.64,26.83,26.83,0,0,0-8.9,4.67A22.19,22.19,0,0,0,207,33a20.41,20.41,0,0,0-2.13,9.32A21.2,21.2,0,0,0,207,51.78a23,23,0,0,0,5.86,7.54,27.79,27.79,0,0,0,8.9,5A33.67,33.67,0,0,0,233,66.13h32v-25Z"/><rect class="cls-1" x="180.86" y="19.44" width="14.45" height="46.69"/><path class="cls-2" d="M56.72,7.94a73.89,73.89,0,0,1,6.22,7.62c1,1.54,1.46,2.91,3.41,3.49,1.47.44,8.5.74,9.48-1,1.31-2.35-5.43-7.52-6.65-8.59C67.5,8,65.63,6.26,63.47,5.55A10.29,10.29,0,0,0,59.2,5.1c-1.53.26-.79.32-1.17.65-.74.64-2.27-.16-2.15.87.07.58.46.89.84,1.32ZM35.72,85c-2.16-1.48-4.07-3-6.67-3.57-1-.21-3.12.23-3.61-1.19-.57-1.66,2.43-1.36,3.58-1.5,2-.25,2.85.12,2.15-2.11a5.84,5.84,0,0,0-3.69-3.36c-1.81-.35-3.75.52-5.68.1-2.43-.52-4.25-2-6.31-3.27-1.68-1.06-5.5-2.68-4.64.79.35,1.39,2.27,3,3.24,3.91C19.94,80.36,28,83.31,35.72,85Zm-31-23.1A43.72,43.72,0,0,1,0,45.84C.33,47,1.27,51.5,2.72,51.71,4.74,52,7,45,8.05,43.52c5.45-7.58,14.22-1.87,18.2,4.12,3.52,5.31,4.94,17.62-2.28,21C20.54,70.32,15.89,67.88,13,66c-2.25-1.49-5.29-4.83-8.36-4.06ZM.79,42.69c1,3.91,2.28,2.11,3.41-.4.73-1.62,1.11-3.58,2.06-5.08s2.28-2,3.87-2.87c2.86-1.6,5.58-6.05.13-6.39-1.58-.1-8.24,3.86-8.34,2A21.83,21.83,0,0,0,.79,42.69ZM3.13,26.62c4.06-1.56,5.06-3.76,6.81-7.53.89-1.92,5.44-7,4.87-8.6A42.83,42.83,0,0,0,3.13,26.62ZM24.07,6.22c-3,.25-1-1.61.16-2.19C27.42,2.4,31.49,1.62,34.93.84A35.35,35.35,0,0,1,49.77.74C51,1,57.7,1.94,58.26,3.41c.29.77-6.92.9-7.39.91a53.69,53.69,0,0,0-9.12.82A90.89,90.89,0,0,1,24.07,6.22ZM19.9,24.79C9.8,28.57,12.11,17,16,12.21s9.88-3.65,15.61-2.86c5.34.73,10-.79,15.3-1.38,5.5-.61,8,2.8,10.32,7.27.53,1,2.23,3.39,1.88,4.62-.47,1.62-4.38,2-5.65,2.27-5.35,1.24-11.07,2.33-16.58,2.1-5.84-.24-11.33-1.72-17,.56ZM42.4,85.25c-1.53-.28-9-1.35-9-3.58s9.42.76,10.82,1c5.1,1,10.31-.65,15.14-2.24a31.77,31.77,0,0,0,7.7-3.59c1-.58,2-1,2.27-.89.11.05-.7.69-1.61,1.37a43.55,43.55,0,0,1-11.59,6c-4.41,1.6-9.06,2.73-13.74,1.84Zm-7.18-9C32.53,72.66,31,64,37.81,63.63c4.41-.21,8.35,3,10.48,6.56,1.41,2.37,2.16,5.2,4.11,7.23,1.6,1.68,4.11,1.76,1.31,3.1-5.1,2.44-15,.35-18.49-4.27Zm46-32.69c-1.3,3.35-3.54,4.75-6,6.93-2.09,1.84-1.75,4.75-2.11,7.33A53.46,53.46,0,0,1,67.9,74.64c.5,2,5.89-2.82,6.43-3.48a61.18,61.18,0,0,0,5.59-7.63,37.05,37.05,0,0,0,4.75-13.85c.13-1.09,1.16-13.83-.49-14-1.21-.15-2.75,7.28-2.93,7.93ZM32.51,52.91c-4.86-10.65,14.92-5.59,19.64-3.15,1.8.93,3.58,2.06,5.44,2.87,2.93,1.27,4.94.2,7.92.47,4.66.43,2.35,8.84,1.83,12-.65,4-1.48,12.52-6.82,12.45S54.65,71.83,52.91,68c-3.7-8.15-16.93-7.49-20.4-15.09Zm-9.33-23.4C16.69,31.34,22.47,37,25.73,39s7.62,2,11.37,1.69c4.95-.47,8.33-1.39,13,1,4.1,2.08,7.6,4.93,12.38,5.11,6.71.26,15-2,17.41-8.76.59-1.65.82-3.36,1.27-5.05.32-1.21,1.41-2.1,1.66-3.16.16-.66-3.17-9.1-4.51-8.64a3.77,3.77,0,0,1-.36,2c-.5.54-3.29.82-4,.86a48.53,48.53,0,0,0-6.19.39c-5.18.93-10.3,2.25-15.45,3.34-4.47.95-9.39,2.55-14,2.32C34.56,29.91,27.77,28.21,23.18,29.51Z"/></g></g></svg>