<svg xmlns="http://www.w3.org/2000/svg" viewBox="0 0 245.63 48.86"><defs><style>.cls-1{fill:#37253e;}.cls-2{fill:#f15b25;}</style></defs><g id="Layer_2" data-name="Layer 2"><g id="Layer_1-2" data-name="Layer 1"><path class="cls-1" d="M187.68,48.86c-.36-.26-.8-.14-1.2-.19A5.07,5.07,0,0,1,183.41,47c-.83-.89-1.67-1.76-2.47-2.67a.81.81,0,0,0-.93-.27,25.17,25.17,0,0,1-16.43-.94c-6.65-2.84-10.63-8-12.1-15a23.31,23.31,0,0,1,2.87-17.69,20.1,20.1,0,0,1,14.27-9.33A24.31,24.31,0,0,1,181.68,2.2c7.24,2.74,11.59,8,13.15,15.55a24.71,24.71,0,0,1-1,13.7A22,22,0,0,1,192,35.34a2.18,2.18,0,0,1-3.2.7,9.08,9.08,0,0,1-2.38-2.56,2.06,2.06,0,0,1,0-2.08,20.63,20.63,0,0,0,1-14.36A13.41,13.41,0,0,0,175.6,6.91a16.84,16.84,0,0,0-9.67,1.4,13.19,13.19,0,0,0-7.12,9A19.86,19.86,0,0,0,160,31.46c2.15,4.39,5.85,6.7,10.63,7.33a17.81,17.81,0,0,0,8.59-.84c.51-.18,1-.42,1.49-.65a2.15,2.15,0,0,1,2.79.5c2.11,2.45,4.39,4.74,6.61,7.08a2.16,2.16,0,0,1,.54,2.44,2.25,2.25,0,0,1-2.07,1.42c-.2,0-.44-.12-.6.12Z"/><path class="cls-1" d="M245.63,25.59a13.23,13.23,0,0,0-.47,2.51,20.6,20.6,0,0,1-17.35,16.53,25,25,0,0,1-14.06-1.53c-6.8-3-10.75-8.32-12.09-15.54a23.68,23.68,0,0,1,1.53-14.4c3.1-6.82,8.48-10.75,15.79-12A23.85,23.85,0,0,1,233.2,2.7c6.82,3.06,10.72,8.42,12.08,15.71a8.32,8.32,0,0,0,.35,2ZM223.26,6.74l-1.48.07-1,.12c-4.74.76-8.49,3-10.54,7.46a19.5,19.5,0,0,0,.09,17.17,12.37,12.37,0,0,0,8,6.67,18.08,18.08,0,0,0,7.67.56c5-.64,8.8-3.14,10.93-7.8a20.25,20.25,0,0,0,1-13.14A13.67,13.67,0,0,0,233.3,10,15.23,15.23,0,0,0,223.26,6.74Z"/><path class="cls-1" d="M52.88,21.81V4.18a6.87,6.87,0,0,1,0-.79c.14-1.47.75-2,2.22-2.06,3.77-.11,7.55-.19,11.32-.15A41.46,41.46,0,0,1,77.6,2.44C85,4.56,89.44,9.57,91.27,16.88A23.82,23.82,0,0,1,90.2,32.3C87.76,38,83.36,41.59,77.47,43.4a26.05,26.05,0,0,1-8.42,1.11A2.18,2.18,0,0,1,67,43.1a2.1,2.1,0,0,1,.63-2.41c.57-.55,1.2-1,1.82-1.51a2.32,2.32,0,0,1,1.37-.37,14.15,14.15,0,0,0,9.52-3.75,14.48,14.48,0,0,0,4.3-8.41,21.54,21.54,0,0,0-.82-10.45,12.86,12.86,0,0,0-10.67-9,28.58,28.58,0,0,0-4.71-.28c-2.52,0-5,0-7.57,0-.4,0-.56.07-.55.52.05,7,.08,14,.13,21,0,3.09.07,6.18.13,9.26A1.84,1.84,0,0,1,60,39.1,39.48,39.48,0,0,1,56.81,42a2.49,2.49,0,0,1-2.08.59A2,2,0,0,1,53,40.94a6.33,6.33,0,0,1-.13-1.38Z"/><path class="cls-1" d="M131.76.73a18.81,18.81,0,0,1,8.67,1.87,13.52,13.52,0,0,1,2,1.31,2.2,2.2,0,0,1,.93,1.62,13.14,13.14,0,0,1,0,2.66,1.83,1.83,0,0,1-2.29,1.49,6.27,6.27,0,0,1-1.83-.91,13.5,13.5,0,0,0-11.92-1.49,6.08,6.08,0,0,0-3,2.32,4.53,4.53,0,0,0,1,6.61,15,15,0,0,0,4.45,2.11c2.66.88,5.38,1.56,8,2.54a16.75,16.75,0,0,1,4.89,2.71,9.61,9.61,0,0,1,3.37,8.94c-.62,5.9-4.11,9.61-9.49,11.44a22.15,22.15,0,0,1-15.74-.65,20.61,20.61,0,0,1-3.61-2.08,1.94,1.94,0,0,1-1-1.64c0-.87-.07-1.73-.11-2.6a2,2,0,0,1,2.9-1.84,7.88,7.88,0,0,1,1.92,1.13,14.74,14.74,0,0,0,8.66,3,12,12,0,0,0,6.06-1.4,6.67,6.67,0,0,0,3.19-7,5,5,0,0,0-2.54-3.23,22.72,22.72,0,0,0-5.62-2.17,70.89,70.89,0,0,1-7.25-2.29,11.18,11.18,0,0,1-6.32-5.83,11.28,11.28,0,0,1,2.42-12.2A15.1,15.1,0,0,1,128.21,1,20.06,20.06,0,0,1,131.76.73Z"/><path class="cls-1" d="M100.75,21.9V3.78a2.24,2.24,0,0,1,2.56-2.55h2.12a2.25,2.25,0,0,1,2.35,2.31v.37q0,17,0,33.92a2.54,2.54,0,0,1-1,2.16c-.87.69-1.63,1.52-2.56,2.13a2.17,2.17,0,0,1-3-.36,2.29,2.29,0,0,1-.52-1.63Q100.76,31,100.75,21.9Z"/><path class="cls-2" d="M39.6,37c-1.36-1.36-2.72-2.73-4.09-4.09l-6.15-6.17-.21-.21a1.24,1.24,0,0,0-1.78,0c-.72.66-1.43,1.33-2.11,2a1.79,1.79,0,0,0,.09,2.72l4.77,4.78,4.67,4.69a1.29,1.29,0,0,1,.16.17A22.92,22.92,0,0,1,5.32,36.53,21.9,21.9,0,0,1,7.67,5.58,23,23,0,0,1,39.23,7,21.86,21.86,0,0,1,39.6,37Z"/></g></g></svg>