<svg width="169" height="40" viewBox="0 0 169 40" fill="none" xmlns="http://www.w3.org/2000/svg">
<path fill-rule="evenodd" clip-rule="evenodd" d="M20.1 7.39995C19 7.39995 18.1 8.29995 18.1 9.39995V30.6C18.1 31.7 19 32.5999 20.1 32.5999C21.2 32.5999 22.1 31.7 22.1 30.6V22H31.5V30.7C31.5 31.8 32.4 32.7 33.5 32.7C34.6 32.7 35.5 31.8 35.5 30.7V9.39995C35.5 8.29995 34.6 7.39995 33.5 7.39995C32.4 7.39995 31.5 8.29995 31.5 9.39995V18H22V9.39995C22 8.29995 21.1 7.39995 20.1 7.39995ZM6.69995 17.1C5.69995 18.9 5.69995 21.1 6.69995 22.9L14.2 35.9C15.2 37.7 17.1 38.7999 19.2 38.7999H34.2C36.3 38.7999 38.2 37.7 39.2 35.9L46.7 22.9C47.7 21.1 47.7 18.9 46.7 17.1L39.2 4.09995C38.2 2.29995 36.3 1.19995 34.2 1.19995H19.2C17.1 1.19995 15.2 2.29995 14.2 4.09995L6.69995 17.1Z" fill="#3CC951"/>
<path d="M54.9 21.9999V28.6999H64.8C65.9 28.6999 66.8 29.5999 66.8 30.6999C66.8 31.7999 65.9 32.6999 64.8 32.6999H53C51.9 32.6999 51 31.7999 51 30.6999V9.3999C51 8.2999 51.9 7.3999 53 7.3999H64.8C65.9 7.3999 66.8 8.2999 66.8 9.3999C66.8 10.4999 65.9 11.3999 64.8 11.3999H54.9V17.9999H63.4C64.5 17.9999 65.4 18.8999 65.4 19.9999C65.4 21.0999 64.5 21.9999 63.4 21.9999H54.9Z" fill="#323537"/>
<path d="M144.1 9.3999C144.1 10.4999 145 11.3999 146.1 11.3999H151.8V30.6999C151.8 31.7999 152.7 32.6999 153.8 32.6999C154.9 32.6999 155.8 31.7999 155.8 30.6999V11.3999H161.5C162.6 11.3999 163.5 10.4999 163.5 9.3999C163.5 8.2999 162.6 7.3999 161.5 7.3999H146C145 7.3999 144.1 8.2999 144.1 9.3999Z" fill="#323537"/>
<path fill-rule="evenodd" clip-rule="evenodd" d="M107.9 22.7L104.9 14.8L101.9 22.7H107.9ZM98.7 31.3C98.3 32.3 97.2 32.8001 96.2 32.4001C95.2 32.0001 94.7 30.9 95.1 29.9L103.1 8.60005C103.4 7.80005 104.2 7.30005 105 7.30005C105.8 7.30005 106.6 7.80005 106.9 8.60005L114.9 29.9C115.3 30.9 114.8 32.0001 113.8 32.4001C112.8 32.8001 111.7 32.3 111.3 31.3L109.5 26.5H100.6L98.7 31.3Z" fill="#323537"/>
<path d="M90.1 32.4999C89.2 33.0999 88 32.8999 87.4 32.0999L81.2 23.5999L75 32.0999C74.4 32.9999 73.1 33.1999 72.3 32.4999C71.4 31.8999 71.2 30.5999 71.9 29.7999L78.8 20.2999L71.5 10.2999C70.9 9.39989 71.1 8.19989 71.9 7.59989C72.8 6.99989 74 7.19989 74.6 7.99989L81.2 16.9999L87.8 7.99989C88.4 7.09989 89.7 6.89989 90.5 7.59989C91.4 8.19989 91.6 9.49989 90.9 10.2999L83.6 20.2999L90.5 29.7999C91.2 30.5999 91 31.7999 90.1 32.4999Z" fill="#323537"/>
<path d="M129.9 32.4001C123.1 32.4001 117.5 26.8001 117.5 20.0001C117.5 13.2001 123 7.6001 129.9 7.6001C133.8 7.6001 137.4 9.4001 139.8 12.5001C140.4 13.3001 140.2 14.4001 139.4 15.0001C138.6 15.6001 137.5 15.4001 136.9 14.6001C135.2 12.4001 132.7 11.1001 129.9 11.1001C125.1 11.1001 121.1 15.0001 121.1 19.9001C121.1 24.8001 125 28.7001 129.9 28.7001C132.5 28.7001 135 27.5001 136.7 25.5001C137.3 24.7001 138.5 24.6001 139.2 25.3001C140 25.9001 140.1 27.1001 139.4 27.8001C137.1 30.8001 133.6 32.4001 129.9 32.4001Z" fill="#323537"/>
</svg>
