<svg xmlns="http://www.w3.org/2000/svg" viewBox="0 0 117.45 34.16"><defs><style>.cls-1,.cls-2{fill:#20232a;}.cls-1{fill-rule:evenodd;}.cls-3{fill:#ffd740;}.cls-4{fill:#ff4081;}.cls-5{fill:#40c4ff;}</style></defs><g id="Layer_2" data-name="Layer 2"><g id="Layer_1-2" data-name="Layer 1"><path class="cls-1" d="M71.72,6.24H64.93A1.81,1.81,0,0,0,63.1,8h0v8.88a.76.76,0,0,0,0,.15.81.81,0,0,0,0,.16V23.6a1.84,1.84,0,0,0,3.67,0V18.85h5a6.39,6.39,0,0,0,6.5-6.28A6.43,6.43,0,0,0,71.72,6.24Zm-.21,3.58h.21a2.79,2.79,0,0,1,2.83,2.76,2.75,2.75,0,0,1-2.83,2.7h-5V9.82Z"/><path class="cls-2" d="M50.48,6.37a1.86,1.86,0,0,0-.48-.1c-2.47-.17-4.37.31-5.64,1.42a5.3,5.3,0,0,0-1.72,4A4.54,4.54,0,0,0,45,15.84a11.54,11.54,0,0,0,3.77,1.36l.27,0c3.59.76,4.07,1.72,4.13,2.24a1.33,1.33,0,0,0,0,.28,1.8,1.8,0,0,1-.56,1.35,3.79,3.79,0,0,1-2.57.8,1.47,1.47,0,0,0-.36,0,9.28,9.28,0,0,1-4.95-1.67,1.79,1.79,0,0,0-2.42.49,1.65,1.65,0,0,0,.5,2.34,12.78,12.78,0,0,0,6.37,2.2,1.84,1.84,0,0,0,.41.06h.3a7.24,7.24,0,0,0,5.16-1.76,5.09,5.09,0,0,0,1.62-3.47,1.5,1.5,0,0,0,0-.37,4.74,4.74,0,0,0-2.37-4.1,13.58,13.58,0,0,0-4.78-1.71l-.24,0c-3.22-.72-3.19-1.71-3.18-2a2,2,0,0,1,.56-1.61,4,4,0,0,1,2.67-.57,1.86,1.86,0,0,0,.41.08,9.89,9.89,0,0,1,3.51,1.15,1.74,1.74,0,0,0,.8.19,1.77,1.77,0,0,0,1.56-.91,1.68,1.68,0,0,0-.75-2.28A14,14,0,0,0,50.48,6.37Z"/><path class="cls-1" d="M88.77,6.22H82A1.81,1.81,0,0,0,80.14,8V23.59a1.84,1.84,0,0,0,3.67,0V18.84h3.6L92,24.62a1.87,1.87,0,0,0,2.57.32,1.75,1.75,0,0,0,.33-2.51l-3.31-4.19a6.27,6.27,0,0,0,3.7-5.67A6.44,6.44,0,0,0,88.77,6.22ZM88.56,9.8h.21a2.8,2.8,0,0,1,2.83,2.77,2.75,2.75,0,0,1-2.83,2.7h-5V9.8Z"/><path class="cls-2" d="M58.19,17.17V16.9a1.52,1.52,0,0,1,3,0v.27a1.52,1.52,0,0,1-3,0Z"/><ellipse class="cls-3" cx="23.44" cy="16.79" rx="11.78" ry="11.73" transform="translate(-5.31 19.04) rotate(-40.09)"/><path class="cls-4" d="M17.23,23.43l6.1,2.91h0A1.55,1.55,0,0,1,24,28.4a1.57,1.57,0,0,1-.87.79L9.94,34.07h0a1.54,1.54,0,0,1-2-.92H8l-4.27-12a5,5,0,0,1-.26-.64h0a6.28,6.28,0,0,1-.22-.7l-.07-.19h0a1.6,1.6,0,0,1-.09-.53A8.44,8.44,0,0,1,8.47,9.8h0a8.26,8.26,0,0,1,10.66,4.94A8.42,8.42,0,0,1,17.23,23.43Z"/><path class="cls-5" d="M15.22,3.33l8-2.94a6.35,6.35,0,0,1,8.15,3.9,6.48,6.48,0,0,1-3.76,8.3L12.91,18q-.44.21-.9.39h0a8.76,8.76,0,0,1-1,.29,6.14,6.14,0,0,1-3.52.1A8.85,8.85,0,0,1,.82,13h0l-.28-.77h0A8.92,8.92,0,0,1,5.71.85h0a8.66,8.66,0,0,1,9.51,2.48Z"/><path class="cls-1" d="M107.4,5.87h-.18a10.07,10.07,0,0,0-9.85,10v0h0v0a10.06,10.06,0,0,0,10,10h.07a10.05,10.05,0,0,0,10-10h0v0h0A10.06,10.06,0,0,0,107.4,5.87Zm0,3.55h.13a6.58,6.58,0,1,1-.13,0Z"/></g></g></svg>