<svg xmlns="http://www.w3.org/2000/svg" viewBox="0 0 194.68 17.18"><defs><style>.cls-1{fill:#bc2c7c;}</style></defs><g id="Layer_2" data-name="Layer 2"><g id="Layer_1-2" data-name="Layer 1"><path class="cls-1" d="M13.21,8.38A5.67,5.67,0,0,0,11.8,7.5,14.38,14.38,0,0,0,10,6.89L8.59,6.53a17.28,17.28,0,0,1-2.43-.74,1.13,1.13,0,0,1-.81-.94A.85.85,0,0,1,5.9,4a3.12,3.12,0,0,1,1.24-.24,3,3,0,0,1,.79.11,2,2,0,0,1,.68.3,1.24,1.24,0,0,1,.62,1.07.62.62,0,0,1,0,.11v.11h4.72A5.39,5.39,0,0,0,13.32,3a4.65,4.65,0,0,0-1.49-1.65A6.35,6.35,0,0,0,9.72.47,10.84,10.84,0,0,0,7.16.18,9.42,9.42,0,0,0,4.7.5a6.52,6.52,0,0,0-2.08,1A4.66,4.66,0,0,0,1.17,3.16,5,5,0,0,0,.63,5.53a3.79,3.79,0,0,0,.45,1.9A3.72,3.72,0,0,0,2.24,8.7a6.62,6.62,0,0,0,1.51.79q.78.28,2.1.66l.27.07c.76.21,1.35.39,1.78.53a6.11,6.11,0,0,1,1,.39,1.5,1.5,0,0,1,.53.41.84.84,0,0,1,.16.53,1.23,1.23,0,0,1-.7,1.18,2.66,2.66,0,0,1-.67.23,4.25,4.25,0,0,1-.69.07,4,4,0,0,1-1.49-.26,1.53,1.53,0,0,1-.89-.92A3,3,0,0,1,5,11.31H0a5.38,5.38,0,0,0,.8,3,5.31,5.31,0,0,0,2,1.8,8.38,8.38,0,0,0,2.32.82,11.48,11.48,0,0,0,2.05.22,12.39,12.39,0,0,0,2.75-.3,7.52,7.52,0,0,0,2.39-.95,4.82,4.82,0,0,0,2.34-4.33,4.32,4.32,0,0,0-.38-1.86A3.7,3.7,0,0,0,13.21,8.38Z"/><path class="cls-1" d="M29.67,2.56A7.62,7.62,0,0,0,27.07.8,8.77,8.77,0,0,0,23.74.18,8.86,8.86,0,0,0,20.4.8a7.62,7.62,0,0,0-2.6,1.76,7.8,7.8,0,0,0-1.68,2.7,9.64,9.64,0,0,0-.59,3.4,9.64,9.64,0,0,0,.59,3.4,7.8,7.8,0,0,0,1.68,2.7,7.46,7.46,0,0,0,2.6,1.75,8.68,8.68,0,0,0,3.34.63,8.59,8.59,0,0,0,3.33-.63,7.46,7.46,0,0,0,2.6-1.75,7.8,7.8,0,0,0,1.68-2.7,9.42,9.42,0,0,0,.59-3.4,9.42,9.42,0,0,0-.59-3.4A7.8,7.8,0,0,0,29.67,2.56Zm-3,8.25a3.91,3.91,0,0,1-.79,1.39,3,3,0,0,1-3.21.7,2.91,2.91,0,0,1-1-.7,3.77,3.77,0,0,1-.8-1.39,6.71,6.71,0,0,1-.3-2.15,6.71,6.71,0,0,1,.3-2.15,3.77,3.77,0,0,1,.8-1.39,2.91,2.91,0,0,1,1-.7,2.94,2.94,0,0,1,3.21.7,3.91,3.91,0,0,1,.79,1.39A6.71,6.71,0,0,1,27,8.66,6.71,6.71,0,0,1,26.65,10.81Z"/><polygon class="cls-1" points="33.91 16.75 38.9 16.75 38.9 10.59 45.36 10.59 45.36 6.73 38.9 6.73 38.9 4.72 46.42 4.72 46.42 0.57 33.91 0.57 33.91 16.75"/><polygon class="cls-1" points="47.41 4.72 51.94 4.72 51.94 16.75 56.93 16.75 56.93 4.72 61.46 4.72 61.46 0.57 47.41 0.57 47.41 4.72"/><path class="cls-1" d="M74.31,13.17a5.7,5.7,0,0,1-1.09,1.42,4.82,4.82,0,0,1-1.5.94,5.32,5.32,0,0,1-1.91.34A5.49,5.49,0,0,1,67,15.23a4.84,4.84,0,0,1-1.76-1.66,6.9,6.9,0,0,1-.94-2.35A12.55,12.55,0,0,1,64,8.55a11.22,11.22,0,0,1,.33-2.76,7.07,7.07,0,0,1,1-2.3A5.27,5.27,0,0,1,67.14,1.9a5.18,5.18,0,0,1,2.54-.58,5.84,5.84,0,0,1,3.37.88,4.69,4.69,0,0,1,1.77,3h1.59a6.73,6.73,0,0,0-.74-2.23,5.37,5.37,0,0,0-1.36-1.62,5.74,5.74,0,0,0-1.9-1A8,8,0,0,0,70.08,0a9.36,9.36,0,0,0-3,.47A6,6,0,0,0,64.67,2a7,7,0,0,0-1.6,2.66,11.88,11.88,0,0,0-.58,4,14,14,0,0,0,.38,3.3,7.84,7.84,0,0,0,1.24,2.73,6.11,6.11,0,0,0,2.19,1.87,6.93,6.93,0,0,0,3.22.69,7.9,7.9,0,0,0,2.84-.46,6.16,6.16,0,0,0,2.06-1.26,6.31,6.31,0,0,0,1.38-1.85,10.35,10.35,0,0,0,.79-2.23H75A6.83,6.83,0,0,1,74.31,13.17Z"/><path class="cls-1" d="M91.68,2.5A6.85,6.85,0,0,0,89.28.67,7.78,7.78,0,0,0,85.94,0,7.36,7.36,0,0,0,82.7.68a6.73,6.73,0,0,0-2.36,1.85A7.93,7.93,0,0,0,78.9,5.26a11,11,0,0,0-.49,3.35,11.26,11.26,0,0,0,.48,3.33,7.65,7.65,0,0,0,1.43,2.71A6.63,6.63,0,0,0,82.7,16.5a8.37,8.37,0,0,0,6.61,0,6.63,6.63,0,0,0,2.38-1.85,7.83,7.83,0,0,0,1.44-2.71,11,11,0,0,0,.49-3.33,11.14,11.14,0,0,0-.49-3.36A8,8,0,0,0,91.68,2.5Zm0,8.86a7,7,0,0,1-1.09,2.31,5.52,5.52,0,0,1-1.88,1.6,5.82,5.82,0,0,1-2.73.6,6,6,0,0,1-2.76-.59,5.38,5.38,0,0,1-1.88-1.59,6.85,6.85,0,0,1-1.09-2.31A10.89,10.89,0,0,1,80,8.61a10.77,10.77,0,0,1,.35-2.74,7.09,7.09,0,0,1,1.09-2.32,5.57,5.57,0,0,1,1.88-1.62A5.67,5.67,0,0,1,86,1.32a6.09,6.09,0,0,1,2.54.5,5.1,5.1,0,0,1,1.93,1.45,6.55,6.55,0,0,1,1.21,2.3,10.2,10.2,0,0,1,.42,3A10.79,10.79,0,0,1,91.73,11.36Z"/><polygon class="cls-1" points="107.54 14.69 107.49 14.69 98.06 0.43 96.31 0.43 96.31 16.75 97.86 16.75 97.86 2.52 97.9 2.52 107.29 16.75 109.08 16.75 109.08 0.43 107.54 0.43 107.54 14.69"/><path class="cls-1" d="M122,9.18a5.28,5.28,0,0,0-1.51-.79,16.11,16.11,0,0,0-1.75-.51L117,7.47a9.41,9.41,0,0,1-1.6-.5,3.76,3.76,0,0,1-1.22-.78,2.18,2.18,0,0,1-.64-1.27,2.84,2.84,0,0,1,.73-2.43,3.49,3.49,0,0,1,1.28-.85,5.4,5.4,0,0,1,2-.32,5.3,5.3,0,0,1,1.49.2,4,4,0,0,1,1.3.63,3.1,3.1,0,0,1,.89,1.12,3.64,3.64,0,0,1,.33,1.61H123A5.37,5.37,0,0,0,122.68,3a4.45,4.45,0,0,0-1-1.55,4.75,4.75,0,0,0-1.71-1A6.86,6.86,0,0,0,117.53,0a7.3,7.3,0,0,0-2.4.36,5.2,5.2,0,0,0-1.74,1,4,4,0,0,0-1,1.41A4,4,0,0,0,112,4.38a4,4,0,0,0,.43,2,3.86,3.86,0,0,0,1.12,1.28,5.63,5.63,0,0,0,1.59.79,18.47,18.47,0,0,0,1.84.51l1.83.44a7.22,7.22,0,0,1,1.59.61,3.38,3.38,0,0,1,1.12,1,2.53,2.53,0,0,1,.43,1.54,3.52,3.52,0,0,1-.24,1.29,2.91,2.91,0,0,1-.73,1.08,3.63,3.63,0,0,1-1.3.74,5.83,5.83,0,0,1-1.88.27,6.48,6.48,0,0,1-1.74-.22,3.85,3.85,0,0,1-1.44-.69,3.62,3.62,0,0,1-1-1.23,4.79,4.79,0,0,1-.49-1.85h-1.5a5.52,5.52,0,0,0,.45,2.32,4.54,4.54,0,0,0,1.23,1.66,5.36,5.36,0,0,0,1.88,1,8.11,8.11,0,0,0,2.36.33,6.92,6.92,0,0,0,4.4-1.24,4.27,4.27,0,0,0,1.56-3.52,4.25,4.25,0,0,0-.4-2A3.57,3.57,0,0,0,122,9.18Z"/><polygon class="cls-1" points="124.26 1.75 129.43 1.75 129.43 16.75 130.97 16.75 130.97 1.75 136.13 1.75 136.13 0.43 124.26 0.43 124.26 1.75"/><path class="cls-1" d="M149.79,16.27a2.2,2.2,0,0,1-.19-.61,7.8,7.8,0,0,1-.14-1c0-.41-.06-.92-.08-1.55,0-.42,0-.86-.08-1.31a5,5,0,0,0-.26-1.29,3.16,3.16,0,0,0-.61-1.09,2.46,2.46,0,0,0-1.13-.72,4.85,4.85,0,0,0,2-1.55A4.28,4.28,0,0,0,150,4.72a3.74,3.74,0,0,0-1.43-3.28,7.13,7.13,0,0,0-4.13-1H138v16.3l1.54,0V9.34h4.85a7.82,7.82,0,0,1,1.1.07,3,3,0,0,1,1,.27,2.1,2.1,0,0,1,.73.6,2.47,2.47,0,0,1,.45,1.05,8.8,8.8,0,0,1,.12,1.23c0,.5.05,1,.09,1.54s.09,1,.16,1.52a3,3,0,0,0,.35,1.13l1.7,0v-.14A1,1,0,0,1,149.79,16.27ZM146,7.84a6.27,6.27,0,0,1-1.6.19h-4.81V1.75h4.9a8.1,8.1,0,0,1,1.49.13,3.67,3.67,0,0,1,1.26.48,2.56,2.56,0,0,1,.89.93,3,3,0,0,1,.33,1.49,3.2,3.2,0,0,1-.32,1.48,2.9,2.9,0,0,1-.86,1A3.65,3.65,0,0,1,146,7.84Z"/><path class="cls-1" d="M163.81,10.16a10.92,10.92,0,0,1-.25,2.51,4.51,4.51,0,0,1-.82,1.78,3.38,3.38,0,0,1-1.48,1.07,6.37,6.37,0,0,1-2.23.35,4.53,4.53,0,0,1-3.65-1.34,6.71,6.71,0,0,1-1.14-4.37V.43H152.7V10.61a6.94,6.94,0,0,0,1.57,4.85A6.11,6.11,0,0,0,159,17.18a6.2,6.2,0,0,0,4.74-1.68,6.88,6.88,0,0,0,1.58-4.89V.43h-1.54Z"/><path class="cls-1" d="M179.79,13.17a5.27,5.27,0,0,1-1.09,1.42,4.82,4.82,0,0,1-1.5.94,5.32,5.32,0,0,1-1.91.34,5.45,5.45,0,0,1-2.78-.64,4.8,4.8,0,0,1-1.77-1.66,6.9,6.9,0,0,1-.94-2.35,12.55,12.55,0,0,1-.29-2.67,11.22,11.22,0,0,1,.33-2.76,7.07,7.07,0,0,1,1-2.3,5.27,5.27,0,0,1,1.76-1.59,5.21,5.21,0,0,1,2.54-.58,5.84,5.84,0,0,1,3.37.88,4.69,4.69,0,0,1,1.77,3h1.59a6.73,6.73,0,0,0-.74-2.23,5.23,5.23,0,0,0-1.36-1.62,5.64,5.64,0,0,0-1.9-1A7.9,7.9,0,0,0,175.56,0a9.4,9.4,0,0,0-3,.47A6,6,0,0,0,170.15,2a7.08,7.08,0,0,0-1.6,2.66,11.88,11.88,0,0,0-.58,4,13.45,13.45,0,0,0,.39,3.3,7.82,7.82,0,0,0,1.23,2.73,6.11,6.11,0,0,0,2.19,1.87,6.93,6.93,0,0,0,3.22.69,7.9,7.9,0,0,0,2.84-.46,6.31,6.31,0,0,0,2.07-1.26,6.45,6.45,0,0,0,1.37-1.85,10.35,10.35,0,0,0,.79-2.23h-1.61A6.83,6.83,0,0,1,179.79,13.17Z"/><polygon class="cls-1" points="182.8 0.43 182.8 1.75 187.97 1.75 187.97 16.75 189.51 16.75 189.51 1.75 194.68 1.75 194.68 0.43 182.8 0.43"/></g></g></svg>