<?xml version="1.0" encoding="UTF-8"?>
<svg width="492px" height="100px" viewBox="0 0 492 100" version="1.1" xmlns="http://www.w3.org/2000/svg" xmlns:xlink="http://www.w3.org/1999/xlink">
    <title>On white horizontal</title>
    <defs>
        <linearGradient x1="1.07421875%" y1="1.07421875%" x2="100%" y2="100%" id="linearGradient-1">
            <stop stop-color="#FF8945" offset="0%"></stop>
            <stop stop-color="#FF22A7" offset="100%"></stop>
        </linearGradient>
    </defs>
    <g id="Logo" stroke="none" stroke-width="1" fill="none" fill-rule="evenodd">
        <g transform="translate(-115.000000, -450.000000)" id="On-white-horizontal">
            <g transform="translate(115.000000, 450.000000)">
                <g id="Group-Copy">
                    <path d="M12,7.74491582e-13 L87.3541977,7.74491582e-13 C93.9816147,7.73274145e-13 99.3541977,5.372583 99.3541977,12 L99.3541977,87.3541977 C99.3541977,93.9816147 93.9816147,99.3541977 87.3541977,99.3541977 L12,99.3541977 C5.372583,99.3541977 -7.31047393e-13,93.9816147 -7.31859018e-13,87.3541977 L-7.31859018e-13,12 C-7.32670642e-13,5.372583 5.372583,7.75709019e-13 12,7.74491582e-13 Z" id="Rectangle" fill="url(#linearGradient-1)" transform="translate(49.677099, 49.677099) rotate(-270.000000) translate(-49.677099, -49.677099) "></path>
                    <g id="Group" transform="translate(31.144587, 24.223567)" fill="#FFFFFF">
                        <path d="M35.2498855,30.7779837 C29.7118897,21.7860689 7.66594577,17.707412 8.46979322,7.39190352 C9.09576804,-0.682220568 20.380418,0.0992880922 20.380418,0.0992880922 C20.380418,0.0992880922 2.64104404,-1.79209137 0.171351016,10.9352388 C-2.36333393,23.9861967 24.0028625,28.9183922 27.6868782,36.6195158 C33.5771987,48.9386759 14.7363827,50.1242966 14.7363827,50.1242966 C35.0446479,51.0637302 39.9361452,38.3861109 35.2498855,30.7779837 Z" id="Combined-Shape"></path>
                        <path d="M7.41623996,46.8619798 L6.6979082,46.5829903 C6.4618849,46.4747762 6.23612349,46.3489774 6.0001002,46.2312945 L5.6511962,46.0493596 C5.53831549,45.9830785 5.43227604,45.9056377 5.31939533,45.8339459 C5.10047518,45.6844752 4.87471376,45.5454877 4.65921423,45.3835047 C3.81089863,44.7328675 3.04125745,43.9243053 2.45290953,42.9912969 C1.85772035,42.0623466 1.45408631,41.0133462 1.24884866,39.9548771 C1.04703164,38.8940408 1.03676976,37.8250884 1.190698,36.8088905 C1.34804686,35.7920162 1.6524827,34.8231618 2.08006113,33.9270139 C2.51790145,33.0372911 3.05493996,32.1966029 3.78011298,31.5101197 C3.68091478,33.4583116 3.65697039,35.2282884 3.87246992,36.8721281 C4.08112819,38.5125861 4.55317478,39.9592733 5.35018098,41.1959575 C5.75381502,41.8124396 6.21559973,42.4045736 6.773162,42.9490258 C7.34098616,43.4843474 7.95327847,44.0183163 8.65108647,44.5005454 C8.98288733,44.7653317 9.36599761,44.9716148 9.72174286,45.2306523 C10.0945913,45.4643271 10.4777015,45.6939439 10.8642324,45.9414837 C11.2576046,46.1653516 11.657818,46.4040989 12.061452,46.6540058 C12.4719273,46.8809173 12.8858233,47.1342059 13.2997192,47.4148862 C12.677165,47.5217476 12.0443489,47.574502 11.4149535,47.574502 C10.0706469,47.574502 8.72634028,47.334402 7.41623996,46.8619798 Z" id="Fill-44" opacity="0.5"></path>
                        <path d="M31.8805675,13.0440609 C31.6719092,11.4032647 31.1998626,9.95657755 30.4028564,8.71989336 C29.9992224,8.10341119 29.5374377,7.51127719 28.9798754,6.96648686 C28.4086306,6.43150344 27.799759,5.89787269 27.0985303,5.41564363 C26.7701501,5.15085727 26.3870398,4.94423598 26.0312946,4.68519849 C25.6584462,4.45186185 25.2753359,4.2219069 24.888805,3.97436716 C24.4920122,3.75049926 24.0952194,3.51175191 23.6915854,3.26150682 C23.2776895,3.03493356 22.8672142,2.78198312 22.4498976,2.50062647 C23.0758724,2.39410322 23.7052679,2.34134885 24.338084,2.34134885 C25.6789699,2.34134885 27.0266972,2.5811107 28.3367975,3.05387103 L29.0551292,3.33319866 C29.2877319,3.44073641 29.5169139,3.5665353 29.7495166,3.68489446 L30.0984206,3.86615307 C30.2147219,3.93277237 30.3207614,4.00987491 30.4336421,4.08190492 C30.6525623,4.23137564 30.8783237,4.37002495 31.0904026,4.53234609 C31.9421388,5.1833215 32.7083594,5.99154551 33.3001279,6.9245539 C33.8953171,7.8531661 34.2989511,8.90284281 34.5041888,9.96063558 C34.7060058,11.02181 34.712847,12.0911006 34.5589188,13.1069604 C34.4015699,14.1241728 34.1005547,15.092689 33.6729763,15.988837 C33.235136,16.8782215 32.6980975,17.7192479 31.9729244,18.4053929 C32.0721226,16.4578774 32.096067,14.6875625 31.8805675,13.0440609 Z" id="Fill-45" opacity="0.5"></path>
                    </g>
                </g>
                <path d="M203.129657,43.082464 C209.736711,43.082464 214.803775,48.9940387 214.803775,56.0481868 C214.803775,63.1023348 209.736711,69.0139096 203.129657,69.0139096 C199.812509,69.0139096 197.239742,67.385576 196.041679,65.8397846 L195.926478,65.685544 L195.926478,78.8499752 L189.120715,78.8499752 L189.120715,43.6289121 L195.926478,43.6289121 L195.926478,46.4108296 C197.069051,44.8211624 199.701937,43.082464 203.129657,43.082464 Z M141.877794,32.6005961 C149.47839,32.6005961 153.999006,38.065077 154.247392,43.3308495 L154.247392,43.3308495 L147.09389,43.3308495 C146.299056,40.3502235 143.964232,39.2573274 141.877794,39.2573274 C139.344262,39.2573274 137.357178,40.4495777 137.307501,42.5360159 C137.257824,44.7218082 138.847491,45.9140586 141.728763,46.7585693 L141.728763,46.7585693 L145.851962,47.9011426 C151.564829,49.4908097 154.992548,53.117238 154.992548,58.5817188 C154.992548,64.5926478 150.124193,69.0635867 142.722305,69.0635867 C134.277198,69.0635867 129.45852,63.3507203 129.160457,57.5384998 L129.160457,57.5384998 L136.363636,57.5384998 C136.860407,60.7178341 139.592648,62.4068554 142.722305,62.4068554 C145.603577,62.4068554 147.739692,61.0655738 147.739692,58.8301043 C147.739692,56.9423746 146.39841,55.5017387 143.020368,54.5578738 L143.020368,54.5578738 L139.294585,53.4649776 C133.73075,51.8753105 130.104322,48.3979136 130.054645,43.0327869 C130.004968,36.5250869 134.823646,32.6005961 141.877794,32.6005961 Z M478.142077,43.082464 C485.347243,43.082464 491.295018,48.1603908 491.11833,57.2664838 L491.107799,57.6378539 L471.733731,57.6378539 C472.031793,60.5688028 474.217586,63.1023348 478.440139,63.1023348 C480.736325,63.1023348 482.756118,62.1349602 483.612332,60.5550856 L483.705912,60.3700944 L490.809737,60.3700944 C489.319424,65.3874814 484.401391,69.0139096 478.092399,69.0139096 C470.491803,69.0139096 465.077,63.5494287 465.077,55.9985097 C465.077,48.596622 470.591157,43.082464 478.142077,43.082464 Z M376.850472,43.082464 C384.053651,43.082464 389.915549,48.7953304 389.915549,56.0481868 C389.915549,63.3010432 384.053651,69.0139096 376.850472,69.0139096 C369.647293,69.0139096 363.785395,63.3010432 363.785395,56.0481868 C363.785395,48.7953304 369.647293,43.082464 376.850472,43.082464 Z M425.235966,43.082464 C428.553114,43.082464 431.125882,44.7107976 432.278922,46.256589 L432.389468,46.4108296 L432.389468,43.6289121 L439.195231,43.6289121 L439.195231,68.4674615 L432.389468,68.4674615 L432.389468,65.685544 C431.296572,67.2752111 428.663686,69.0139096 425.235966,69.0139096 C418.628912,69.0139096 413.561848,63.1023348 413.561848,56.0481868 C413.561848,48.9940387 418.628912,43.082464 425.235966,43.082464 Z M231.246895,43.082464 C238.452062,43.082464 244.399837,48.1603908 244.223148,57.2664838 L244.212618,57.6378539 L224.838549,57.6378539 C225.136612,60.5688028 227.322404,63.1023348 231.544958,63.1023348 C233.841144,63.1023348 235.860937,62.1349602 236.717151,60.5550856 L236.81073,60.3700944 L243.914555,60.3700944 C242.424242,65.3874814 237.50621,69.0139096 231.197218,69.0139096 C223.596622,69.0139096 218.181818,63.5494287 218.181818,55.9985097 C218.181818,48.596622 223.695976,43.082464 231.246895,43.082464 Z M166.418281,43.6289121 L166.418281,56.8926975 C166.418281,60.6184799 167.709886,62.8042722 170.640835,62.8042722 C173.671138,62.8042722 175.757576,60.5688028 175.757576,55.7501242 L175.757576,55.7501242 L175.757576,43.6289121 L182.563338,43.6289121 L182.563338,68.4674615 L175.757576,68.4674615 L175.757576,65.6358669 C174.465971,67.6229508 172.131148,69.0139096 168.951813,69.0139096 C162.940884,69.0139096 159.612519,64.6423249 159.612519,58.0352707 L159.612519,58.0352707 L159.612519,43.6289121 L166.418281,43.6289121 Z M403.626428,36.7237953 L403.626428,43.6289121 L410.630899,43.6289121 L410.630899,49.5901639 L403.626428,49.5901639 L403.626428,58.4326875 C403.626428,61.4629906 404.918033,62.6552409 407.848982,62.6552409 C408.941878,62.6552409 409.836066,62.5062096 410.630899,62.208147 L410.630899,62.208147 L410.630899,68.219076 C409.538003,68.5668157 408.196721,68.7655241 406.308992,68.7655241 C401.043219,68.7655241 396.820666,65.8345753 396.820666,59.7739692 L396.820666,59.7739692 L396.820666,49.5901639 L391.803279,49.5901639 L391.803279,43.6289121 L396.820666,43.6289121 L396.820666,36.7237953 L403.626428,36.7237953 Z M455.14158,36.7237953 L455.14158,43.6289121 L462.146051,43.6289121 L462.146051,49.5901639 L455.14158,49.5901639 L455.14158,58.4326875 C455.14158,61.4629906 456.433184,62.6552409 459.364133,62.6552409 C460.457029,62.6552409 461.351217,62.5062096 462.146051,62.208147 L462.146051,62.208147 L462.146051,68.219076 C461.053154,68.5668157 459.711873,68.7655241 457.824143,68.7655241 C452.558371,68.7655241 448.335817,65.8345753 448.335817,59.7739692 L448.335817,59.7739692 L448.335817,49.5901639 L443.31843,49.5901639 L443.31843,43.6289121 L448.335817,43.6289121 L448.335817,36.7237953 L455.14158,36.7237953 Z M349.577745,43.082464 C355.588674,43.082464 359.165425,47.4540487 359.165425,53.9120715 L359.165425,53.9120715 L359.165425,68.4674615 L352.359662,68.4674615 L352.359662,55.0546448 C352.359662,51.4778937 350.819672,49.2921013 347.988077,49.2921013 C344.85842,49.2921013 342.47392,51.5772479 342.47392,56.3462494 L342.47392,56.3462494 L342.47392,68.4674615 L335.668157,68.4674615 L335.668157,43.6289121 L342.47392,43.6289121 L342.47392,46.4605067 C343.765524,44.4734228 346.348733,43.082464 349.577745,43.082464 Z M319.821162,43.082464 C325.832091,43.082464 329.408843,47.4540487 329.408843,53.9120715 L329.408843,53.9120715 L329.408843,68.4674615 L322.60308,68.4674615 L322.60308,55.0546448 C322.60308,51.4778937 321.06309,49.2921013 318.231495,49.2921013 C315.101838,49.2921013 312.717337,51.5772479 312.717337,56.3462494 L312.717337,56.3462494 L312.717337,68.4674615 L305.911575,68.4674615 L305.911575,43.6289121 L312.717337,43.6289121 L312.717337,46.4605067 C314.008942,44.4734228 316.592151,43.082464 319.821162,43.082464 Z M262.146051,43.3308495 C262.84153,43.3308495 263.586687,43.3805266 264.431197,43.6289121 L264.431197,43.6289121 L264.431197,50.5340288 C263.387978,50.1862891 262.444113,49.9875807 261.351217,49.9875807 C258.122206,49.9875807 255.98609,52.5211128 255.98609,56.5946349 L255.98609,56.5946349 L255.98609,68.4674615 L249.180328,68.4674615 L249.180328,43.6289121 L255.98609,43.6289121 L255.98609,47.60308 C256.830601,45.1689021 259.364133,43.3308495 262.146051,43.3308495 Z M287.382017,33.1967213 L302.632886,68.4674615 L295.081967,68.4674615 L291.654247,60.4197715 L276.651764,60.4197715 L273.224044,68.4674615 L265.772479,68.4674615 L280.973671,33.1967213 L287.382017,33.1967213 Z M426.676602,49.2921013 C422.95082,49.2921013 420.417288,52.1733731 420.417288,56.0481868 C420.417288,59.9230005 422.95082,62.8042722 426.676602,62.8042722 C430.402385,62.8042722 432.935917,59.9230005 432.935917,56.0481868 C432.935917,52.1733731 430.402385,49.2921013 426.676602,49.2921013 Z M201.639344,49.2921013 C197.913562,49.2921013 195.38003,52.1733731 195.38003,56.0481868 C195.38003,59.9230005 197.913562,62.8042722 201.639344,62.8042722 C205.365127,62.8042722 207.898659,59.9230005 207.898659,56.0481868 C207.898659,52.1733731 205.365127,49.2921013 201.639344,49.2921013 Z M376.850472,49.4411326 C373.273721,49.4411326 370.640835,52.2230502 370.640835,56.0481868 C370.640835,59.8733234 373.273721,62.6552409 376.850472,62.6552409 C380.427223,62.6552409 383.010432,59.8733234 383.010432,56.0481868 C383.010432,52.2230502 380.427223,49.4411326 376.850472,49.4411326 Z M284.153005,42.6353701 L279.28465,54.1107799 L289.021361,54.1107799 L284.153005,42.6353701 Z M231.048187,48.596622 C228.010578,48.596622 225.86213,50.3281439 225.147899,52.9281796 L225.086935,53.1669151 L236.761053,53.1669151 C235.916542,49.8385494 233.38301,48.596622 231.048187,48.596622 Z M477.943368,48.596622 C474.90576,48.596622 472.757311,50.3281439 472.04308,52.9281796 L471.982116,53.1669151 L483.656234,53.1669151 C482.811724,49.8385494 480.278192,48.596622 477.943368,48.596622 Z" id="Combined-Shape" fill="#0D0D0D" fill-rule="nonzero"></path>
            </g>
        </g>
    </g>
</svg>