<?xml version="1.0" encoding="utf-8"?>
<!-- Generator: Adobe Illustrator 23.0.1, SVG Export Plug-In . SVG Version: 6.00 Build 0)  -->
<svg version="1.1" id="Layer_1" xmlns="http://www.w3.org/2000/svg" xmlns:xlink="http://www.w3.org/1999/xlink" x="0px" y="0px"
	 viewBox="0 0 654.3 179.3" style="enable-background:new 0 0 654.3 179.3;" xml:space="preserve">
<style type="text/css">
	.st0{fill:#323A45;}
</style>
<g>
	<g id="Group_52510_1_" transform="translate(60.727 20.5)">
		<path id="Path_104672_1_" class="st0" d="M157.2,37.5c2.6-1,5.6-2.6,8.2-3.6c3.1-1.5,5.6-3.1,8.7-4.6c5.5-3.2,10.5-7.2,14.9-11.8
			h14.9v96.8h-21V44.2c-2.9,2-6,3.7-9.2,5.1c-3.3,1.6-6.7,3-10.2,4.1L157.2,37.5z"/>
		<path id="Path_104673_1_" class="st0" d="M301.6,65.2c0,16.4-3.1,28.7-9.2,37.4c-10.6,14.1-30.7,17-44.8,6.4
			c-2.4-1.8-4.6-4-6.4-6.4c-6.1-8.7-9.2-21-9.2-37.4c0-7.2,0.8-14.5,2.6-21.5c1.4-5.7,3.9-11,7.2-15.9c2.9-4.2,6.7-7.5,11.3-9.7
			c4.4-2.3,9.4-3.5,14.3-3.6c10.2-0.4,19.8,4.4,25.6,12.8C299.1,36,301.6,49.3,301.6,65.2z M280.1,65.2c0.1-4.4-0.1-8.9-0.5-13.3
			c-0.3-3.5-1-6.9-2-10.2c-0.8-2.5-2.2-4.8-4.1-6.7c-1.8-1.7-4.2-2.6-6.7-2.6c-2.4,0.1-4.8,1-6.7,2.6c-1.9,1.9-3.3,4.1-4.1,6.7
			c-1.3,3.3-2,6.7-2,10.2c-0.4,4.4-0.6,8.9-0.5,13.3c-0.1,4.4,0.1,8.9,0.5,13.3c0.3,3.5,1,6.9,2,10.2c0.8,2.5,2.2,4.8,4.1,6.7
			c1.8,1.7,4.2,2.6,6.7,2.6c2.4-0.1,4.8-1,6.7-2.6c1.9-1.9,3.3-4.1,4.1-6.7c1-3.3,1.7-6.8,2-10.2C280.1,74.1,280.2,69.6,280.1,65.2z
			"/>
		<path id="Path_104674_1_" class="st0" d="M382.6,27.8c1,3.6,2.6,8.2,3.6,12.8c1.5,4.6,2.6,9.7,4.1,14.9l4.6,15.4
			c1.5,5.1,3.1,9.7,4.6,14.3c1-4.6,2.6-9.7,3.6-15.4c1-5.6,2.6-11.3,3.6-17.4s2-11.8,3.1-17.9s2-11.8,3.1-16.9h22.5
			c-3.1,16.4-7.2,32.8-11.3,49.2c-4.1,16.9-8.7,32.3-13.8,47.6h-20c-3.1-8.7-6.7-18.4-9.7-28.2c-3.1-9.7-6.1-19.5-9.2-29.7
			c-3.1,9.7-6.1,19.5-8.7,29.7s-6.1,19-9.2,28.2h-20c-5.1-14.9-9.7-30.7-13.8-47.6c-4.1-16.9-8.2-33.3-11.3-49.2H332l3.1,16.9
			c1,6.1,2,11.8,3.6,17.9c1,6.1,2.6,11.8,3.6,17.4c1,5.2,2.4,10.3,4.1,15.4c1.5-4.6,3.1-9.2,5.1-14.3l4.6-15.4
			c1.5-5.1,3.1-10.2,4.1-14.9s2.6-9.2,3.6-12.8C363.8,27.8,382.6,27.8,382.6,27.8z"/>
		<path id="Path_104675_1_" class="st0" d="M440.4,78c-0.3-10.7,3.6-21.2,10.8-29.2c3.2-3.1,7.1-5.6,11.3-7.2
			c4.1-1.6,8.4-2.5,12.8-2.6c9.2-0.5,18.2,3.1,24.6,9.7c6.7,7.8,10,17.9,9.2,28.2V81c0.1,1.4-0.1,2.8-0.5,4.1h-47.1
			c0.5,4.1,2.7,7.9,6.1,10.2c4.3,2.7,9.3,3.9,14.3,3.6c3.8-0.1,7.5-0.4,11.3-1c3.2-0.5,6.3-1.3,9.2-2.6l2.6,16.9
			c-1.5,0.7-3,1.2-4.6,1.5l-6.1,1.5c-2.3,0.6-4.7,1-7.2,1c-2.5,0.4-5.1,0.6-7.7,0.5c-5.9,0.1-11.9-0.9-17.4-3.1
			c-4.6-1.8-8.8-4.6-12.3-8.2c-3.3-3.5-5.7-7.7-7.2-12.3C441.1,88.3,440.4,83.2,440.4,78z M489.1,69.8c-0.1-1.7-0.4-3.5-1-5.1
			c-0.7-1.6-1.5-3.2-2.6-4.6c-1-1.4-2.4-2.5-4.1-3.1c-1.9-0.9-4-1.3-6.1-1c-2.1,0-4.2,0.4-6.1,1c-1.5,0.9-2.8,1.9-4.1,3.1
			c-1.1,1.4-2,2.9-2.6,4.6c-0.5,2-1,3.6-1.5,5.1H489.1z"/>
		<path id="Path_104676_1_" class="st0" d="M593.6,77.5c0,5.4-0.9,10.8-2.6,15.9c-1.6,4.6-4.2,8.9-7.7,12.3
			c-3.2,3.5-7.3,6.1-11.8,7.7c-5.3,1.7-10.8,2.6-16.4,2.6c-2.6,0.1-5.1-0.1-7.7-0.5c-2.6-0.5-5.6-0.5-8.2-1l-7.7-1.5
			c-2.6-0.5-4.6-1-6.7-1.5V8.8l21-3.6v36.4c4.8-2.3,10-3.5,15.4-3.6c4.7,0,9.4,0.9,13.8,2.6c3.8,2,7.3,4.6,10.2,7.7
			c2.8,3.7,4.8,7.9,6.1,12.3C593,66.1,593.7,71.7,593.6,77.5z M572.6,76.9c0-13.3-5.1-20-14.9-20c-2.1,0.1-4.1,0.4-6.1,1
			c-1.8,0.4-3.6,1.1-5.1,2v37.9c1,0,2.6,0.5,4.1,0.5h5.1c4.9,0.2,9.6-1.9,12.8-5.6C571.2,88,572.6,82.5,572.6,76.9z"/>
	</g>
	<g id="Group_52511_1_" transform="translate(18.175 15.475)">
		<path id="Path_104677_1_" class="st0" d="M9.6,46.1L70-14.3c1.6-1.5,4.1-1.5,5.6,0l87.1,87.6c1.5,1.6,1.5,4.1,0,5.6l-0.5,0.5
			c-7.2,7.2-18.9,7.2-26.1,0L74.7,17.9c-1.6-1.5-4.1-1.5-5.6,0L34.7,52.3c-7.2,7.2-18.9,7.2-26.1,0C7.9,50.2,8.3,47.9,9.6,46.1z"/>
		<path id="Path_104678_1_" class="st0" d="M136.6,102.2l-60.4,60.4c-1.6,1.5-4.1,1.5-5.6,0L-17,75c-1.5-1.6-1.5-4.1,0-5.6l0,0
			c7.2-7.2,18.9-7.2,26.1,0l60.9,61c1.6,1.5,4.1,1.5,5.6,0L110,96c7.2-7.2,18.9-7.2,26.1,0l0,0c1.8,1.5,2.1,4.1,0.7,5.9
			C136.7,102.1,136.7,102.1,136.6,102.2z"/>
		<path id="Path_104679_1_" class="st0" d="M79.3,72.4L64.4,57.5c-4.1-4.5-4.1-11.4,0-15.9l0.5-0.5c4.1-4.4,10.9-4.6,15.3-0.6
			c0.2,0.2,0.4,0.4,0.6,0.6l30.7,30.7c1.5,1.6,1.5,4.1,0,5.6l-29.7,29.7c-4.1,4.4-10.9,4.6-15.3,0.6c-0.2-0.2-0.4-0.4-0.6-0.6l0,0
			c-4.4-4.1-4.6-10.9-0.6-15.3c0.2-0.2,0.4-0.4,0.6-0.6l13.8-13.8C80.9,75.9,80.7,73.7,79.3,72.4z"/>
		<path id="Path_104680_1_" class="st0" d="M60.8,70.8l-5.1-5.1c-4.1-4.4-10.9-4.6-15.3-0.6c-0.2,0.2-0.4,0.4-0.6,0.6l0,0
			c-4.1,4.5-4.1,11.4,0,15.9l0,0c4.1,4.4,10.9,4.6,15.3,0.6c0.2-0.2,0.4-0.4,0.6-0.6l5.1-5.1C62.4,74.9,62.4,72.4,60.8,70.8z"/>
	</g>
</g>
</svg>
