<svg id="Layer_1" data-name="Layer 1" xmlns="http://www.w3.org/2000/svg" viewBox="0 0 453.75 118.11"><defs><style>.cls-1{fill:#ee2e24;}</style></defs><path class="cls-1" d="M195.89,78.75,191,93.84a1.1,1.1,0,0,1-1.12.81H178.05c-.71,0-.92-.4-.81-1l20.39-58.83a19,19,0,0,0,1-6.22.67.67,0,0,1,.61-.71h16.31c.51,0,.71.1.82.61l23.14,65.25c.2.51.1.91-.51.91H225.77a1,1,0,0,1-1.13-.71l-5.2-15.19ZM215.67,66c-2-6.73-6.11-19.07-8-26.31h-.1c-1.63,6.83-5.31,18-8,26.31Z"/><path class="cls-1" d="M241.14,69.78C241.14,55.2,252.05,43,270.71,43c.81,0,1.83.11,3.36.21V23.08a.64.64,0,0,1,.71-.71h12.85c.51,0,.61.2.61.61V83.24a56.78,56.78,0,0,0,.41,7.44c0,.51-.1.71-.71.92a51.37,51.37,0,0,1-20.09,4.07C252.76,95.67,241.14,87.11,241.14,69.78ZM274.07,55.3a10.5,10.5,0,0,0-3.77-.51c-7.85,0-14.58,4.79-14.58,14.27,0,10.1,5.81,14.48,13.56,14.48a14.38,14.38,0,0,0,4.79-.61Z"/><path class="cls-1" d="M346.63,69.06c0,16-10.4,26.61-25.08,26.61-17.43,0-25.18-13.15-25.18-26.3,0-14.48,9.68-26.41,25.38-26.41C338.17,43,346.63,55.3,346.63,69.06Zm-35.89.11c0,9,4.18,14.68,11,14.68,5.92,0,10.4-5.1,10.4-14.48,0-8-3.26-14.58-11-14.58C315.23,54.79,310.74,60.09,310.74,69.17Z"/><path class="cls-1" d="M368.06,22.37c.82,0,1,.1,1,.82v20.9A32.5,32.5,0,0,1,377.64,43c15,0,24.47,10.61,24.47,24.27,0,19.06-15.09,28.44-30.58,28.44a53.41,53.41,0,0,1-16-2.34,1.18,1.18,0,0,1-.61-1V23.08c0-.51.2-.71.71-.71Zm7,32.62a20.49,20.49,0,0,0-6,.82V83.44a15.61,15.61,0,0,0,3.77.41c7.75,0,14.78-4.69,14.78-15.3C387.63,59.28,382.23,55,375.09,55Z"/><path class="cls-1" d="M422,73c.51,5.81,4.59,10.6,14.58,10.6a31.58,31.58,0,0,0,12.54-2.34c.31-.21.61-.1.61.51v9.68c0,.72-.2,1-.71,1.23-4.08,1.93-8.56,3-15.6,3-19.16,0-25.89-13.15-25.89-25.79,0-14.07,8.66-26.92,24.67-26.92,15.39,0,21.51,11.93,21.51,22a32.37,32.37,0,0,1-.51,6.83.86.86,0,0,1-.81.81,93,93,0,0,1-10.51.41Zm13.26-9.89a33.93,33.93,0,0,0,5.1-.2v-.72a8.3,8.3,0,0,0-8.67-8c-6.42,0-9.18,4.79-9.79,9Z"/><polygon class="cls-1" points="84.13 0 133.46 0 133.46 118.11 84.13 0"/><polygon class="cls-1" points="49.37 0 0 0 0 118.11 49.37 0"/><polygon class="cls-1" points="66.75 43.53 98.18 118.11 77.58 118.11 68.18 94.36 45.18 94.36 66.75 43.53"/></svg>