<svg width="1847" height="466" viewBox="0 0 1847 466" fill="none" xmlns="http://www.w3.org/2000/svg">
<path d="M311.738 163.494C303.315 155.046 289.343 146.2 266.849 145.405C281.614 125.031 293.208 97.003 293.802 95.8104C303.513 74.74 301.631 49.1972 288.847 29.1208C277.353 10.9327 258.624 0.0993883 238.805 0.0993883L176.971 0L80.2896 283H130.875L84.8135 414.847L67.0757 465.535L118.604 424.488L300.838 279.381L301.234 279.082C315.405 266.559 325.116 249.564 328.584 231.277C333.638 204.541 327.296 179.297 311.738 163.494Z" fill="#43FAEF"/>
<path d="M96.4011 0.14328L-3.05176e-05 282.901L80.2842 283L176.785 0.242667L96.4011 0.14328Z" fill="#8000FF"/>
<path d="M571.549 223.17C584.292 226.754 594.348 233.425 601.616 243.181C608.983 252.938 612.667 263.989 612.667 276.335C612.667 295.848 606.096 310.981 592.954 321.734C579.812 332.486 560.099 337.862 533.915 337.862H447V128.589H531.128C553.23 128.589 570.055 133.467 581.604 143.124C593.153 152.782 598.928 165.824 598.928 182.152C598.928 191.51 596.439 199.774 591.361 207.041C586.284 214.409 579.713 219.685 571.549 223.17ZM486.625 161.841V211.721H531.128C539.292 211.721 545.663 209.232 550.243 204.254C554.823 199.276 557.113 193.004 557.113 185.437C557.113 177.87 554.823 172.096 550.143 168.014C545.464 163.932 539.292 161.841 531.426 161.841H486.625V161.841ZM532.621 304.609C545.365 304.609 554.723 301.822 560.697 296.346C566.67 290.87 569.657 283.602 569.657 274.642C569.657 265.483 566.869 257.817 561.195 251.644C555.52 245.471 546.36 242.385 533.617 242.385H486.625V304.51H532.621V304.609Z" fill="black"/>
<path d="M716.21 180.957C720.989 180.957 725.17 181.255 728.755 181.853V215.504C725.17 215.305 721.985 215.205 719.296 215.205C689.429 215.205 672.404 227.65 668.222 252.54V337.663H629.992V182.351H668.222V217.097C670.811 206.344 676.187 197.583 684.351 190.913C692.515 184.342 703.068 180.957 716.21 180.957Z" fill="black"/>
<path d="M863.557 301.324C863.557 309.687 867.24 314.068 874.608 314.466V336.568C871.223 338.161 866.444 338.858 860.47 338.858C851.112 338.858 843.545 336.867 837.771 332.884C831.996 328.902 829.109 322.928 829.109 314.964V311.18C818.357 330.296 800.536 339.853 775.745 339.754C760.811 339.754 748.366 335.772 738.51 327.807C728.654 319.842 723.676 307.994 723.676 292.364C723.676 284.399 725.07 277.629 727.857 272.153C730.645 266.677 735.026 262.197 740.8 258.912C746.574 255.527 752.349 253.038 758.123 251.345C763.898 249.653 771.166 247.96 780.126 246.268C782.117 245.869 785.502 245.372 790.381 244.675C795.259 243.978 798.943 243.38 801.332 242.883C803.721 242.385 806.609 241.788 810.193 241.091C813.777 240.394 816.664 239.597 819.054 238.701C821.443 237.805 823.534 236.909 825.425 235.914V235.316C825.425 217.794 816.067 209.032 797.25 208.933C780.325 208.933 770.767 215.305 768.677 228.048H732.835C735.623 196.588 757.227 180.857 797.549 180.957C821.045 180.957 837.97 185.935 848.225 195.791C858.479 205.647 863.656 221.776 863.656 244.277V301.324H863.557ZM825.326 288.78V258.912C820.547 261.301 807.405 264.786 785.801 269.166C777.04 271.158 770.867 273.746 767.382 277.231C763.798 280.616 762.106 285.395 762.106 291.368C762.106 297.541 764.196 302.519 768.278 306.501C772.36 310.483 778.234 312.475 785.9 312.475C802.825 312.375 815.967 304.51 825.326 288.78Z" fill="black"/>
<path d="M884.366 126H922.597V156.166H884.366V126ZM884.366 182.45H922.597V337.763H884.366V182.45Z" fill="black"/>
<path d="M1032.11 180.957C1068.95 180.957 1087.36 201.964 1087.36 243.978V337.763H1049.13V246.069C1049.13 223.767 1038.78 212.716 1018.07 212.716C1007.32 212.716 998.656 216.201 992.185 223.27C985.714 230.338 981.93 237.506 980.736 244.973V337.862H942.505V182.55H980.736V214.807C983.523 207.24 989.497 199.674 998.557 192.307C1007.62 184.939 1018.87 180.957 1032.11 180.957Z" fill="black"/>
<path d="M1195.19 228.048C1191.61 215.703 1181.75 209.53 1165.62 209.53C1157.46 209.53 1151.08 211.123 1146.41 214.21C1141.73 217.296 1139.44 221.676 1139.44 227.152C1139.44 235.515 1145.81 241.19 1158.55 244.177L1185.63 250.449C1192.6 252.042 1197.98 253.336 1201.66 254.332C1205.34 255.328 1209.53 256.92 1214.21 259.011C1218.88 261.102 1222.27 263.491 1224.46 266.18C1226.65 268.868 1228.64 272.452 1230.33 276.932C1232.03 281.412 1232.92 286.689 1232.92 292.662C1232.92 308.194 1226.65 319.942 1214.21 327.906C1201.76 335.871 1185.53 339.754 1165.62 339.754C1146.31 339.754 1130.77 335.572 1119.03 327.11C1107.28 318.647 1100.41 306.103 1098.42 289.377H1133.66C1137.05 304.112 1147.9 311.579 1166.22 311.579C1175.18 311.579 1182.15 309.886 1187.13 306.501C1192.1 303.116 1194.59 298.437 1194.59 292.463C1194.59 287.485 1193.1 283.802 1190.11 281.412C1187.13 279.023 1182.25 277.131 1175.58 275.737L1149.79 270.062C1133.46 266.478 1121.71 261.002 1114.45 253.834C1107.18 246.566 1103.6 237.407 1103.6 226.157C1103.6 212.218 1109.07 201.267 1120.02 193.203C1130.97 185.138 1146.01 181.056 1165.12 181.056C1184.04 181.056 1198.97 185.238 1209.73 193.501C1220.48 201.765 1227.25 213.313 1229.94 228.247H1195.19V228.048Z" fill="black"/>
<path d="M1311.77 309.587C1316.35 309.587 1321.73 308.891 1328 307.497V335.373C1320.24 338.161 1311.27 339.555 1301.12 339.455C1287.18 339.455 1276.43 336.568 1268.76 330.893C1261.1 325.119 1257.21 314.366 1257.21 298.636V212.617H1232.12V182.45H1257.21V143.622H1295.44V182.45H1326.51V212.617H1295.44V294.454C1295.35 304.51 1300.72 309.587 1311.77 309.587Z" fill="black"/>
<path d="M1379.87 185.537C1388.43 182.45 1397.09 180.957 1405.86 180.957C1414.62 180.957 1423.38 182.45 1431.84 185.537C1440.4 188.623 1448.47 193.103 1456.13 199.077C1463.8 205.05 1469.97 213.413 1474.65 223.966C1479.33 234.619 1481.72 246.765 1481.72 260.306C1481.72 273.846 1479.33 285.892 1474.65 296.446C1469.97 306.999 1463.8 315.262 1456.13 321.335C1448.47 327.409 1440.4 331.988 1431.84 335.075C1423.28 338.161 1414.62 339.654 1405.86 339.654C1397.09 339.654 1388.33 338.161 1379.87 335.075C1371.31 331.988 1363.24 327.409 1355.78 321.335C1348.21 315.262 1342.14 306.899 1337.36 296.446C1332.68 285.892 1330.29 273.846 1330.29 260.306C1330.29 246.765 1332.68 234.619 1337.36 223.966C1342.04 213.314 1348.21 205.05 1355.78 199.077C1363.24 193.203 1371.31 188.623 1379.87 185.537ZM1444.78 260.505C1444.78 244.376 1441.1 232.23 1433.73 224.166C1426.36 216.101 1417.11 212.019 1405.96 212.019C1394.8 212.019 1385.55 216.101 1378.18 224.166C1370.81 232.23 1367.13 244.376 1367.13 260.505C1367.13 276.434 1370.91 288.481 1378.38 296.645C1385.84 304.809 1395.1 308.791 1406.05 308.791C1417.01 308.791 1426.17 304.709 1433.73 296.645C1441 288.481 1444.78 276.434 1444.78 260.505Z" fill="black"/>
<path d="M1580.58 180.957C1585.36 180.957 1589.54 181.255 1593.13 181.853V215.504C1589.54 215.305 1586.36 215.205 1583.67 215.205C1553.8 215.205 1536.78 227.65 1532.6 252.54V337.663H1494.36V182.351H1532.6V217.097C1535.18 206.344 1540.56 197.583 1548.72 190.913C1556.79 184.342 1567.44 180.957 1580.58 180.957Z" fill="black"/>
<path d="M1793.24 180.957C1809.17 180.957 1822.01 186.233 1831.77 196.787C1841.53 207.34 1846.31 223.966 1846.31 246.566V337.763H1808.08V247.662C1808.08 235.515 1805.49 226.655 1800.31 221.079C1795.13 215.504 1788.26 212.716 1779.7 212.716C1768.95 212.716 1760.29 216.3 1753.92 223.568C1747.54 230.836 1744.36 237.706 1744.36 244.376V337.862H1706.13V247.761C1706.13 235.814 1703.54 226.953 1698.36 221.278C1693.18 215.603 1686.22 212.716 1677.45 212.716C1667.1 212.716 1658.94 216.201 1652.86 223.27C1646.79 230.338 1643.41 237.606 1642.61 245.173V337.763H1604.38V182.45H1642.61V214.707C1645 207.141 1650.47 199.574 1659.04 192.207C1667.5 184.74 1678.45 181.056 1691.59 181.056C1717.08 181.056 1733.31 192.605 1740.48 215.603C1744.26 206.643 1750.93 198.678 1760.49 191.61C1770.14 184.541 1781 180.957 1793.24 180.957Z" fill="black"/>
</svg>
