<svg xmlns="http://www.w3.org/2000/svg" xmlns:xlink="http://www.w3.org/1999/xlink" width="196px" height="42px" viewBox="0 0 196 42" version="1.1">
    <!-- Generator: Sketch 51.3 (57544) - http://www.bohemiancoding.com/sketch -->
    <title>Group 16</title>
    <desc>Created with Sketch.</desc>
    <defs>
        <polygon id="path-1" points="0 41.7887349 195.904021 41.7887349 195.904021 0 0 0"/>
    </defs>
    <g id="Press-Kit" stroke="none" stroke-width="1" fill="none" fill-rule="evenodd">
        <g id="00.-Press-Kit-Copy" transform="translate(-799.000000, -298.000000)">
            <g id="Group-4-Copy" transform="translate(737.000000, 249.000000)">
                <g id="Group-16" transform="translate(62.000000, 49.000000)">
                    <path d="M56.7757948,23.0201241 C56.7757948,27.6039434 58.8979495,31.5071602 63.9383825,31.5071602 C67.8843979,31.5071602 70.4874598,29.0157506 70.5041299,25.8933289 L71.8304134,25.8933289 L71.8304134,25.9434253 C71.8304134,29.6138711 68.7300268,32.7360398 63.9383825,32.7360398 C57.9530577,32.7360398 55.4161711,28.3680398 55.4161711,22.870594 L55.4161711,19.0341723 C55.4161711,13.5531723 58.0689907,9.11888313 63.8719546,9.11888313 C68.8957175,9.11888313 71.6811402,12.6896422 71.6811402,16.0114373 L71.6811402,16.0610277 L70.3548567,16.0610277 C70.3215165,13.3704976 68.0003309,10.3642084 63.8719546,10.3642084 C58.9807948,10.3642084 56.7757948,14.2509795 56.7757948,18.8846422 L56.7757948,23.0201241 Z" id="Fill-1" fill="#555555"/>
                    <path d="M77.8631469,22.7876313 L77.8631469,24.9468361 C77.8631469,29.2318482 80.2340902,31.5071855 83.5335077,31.5071855 C86.7831675,31.5071855 89.1871985,29.2814386 89.1871985,24.9468361 L89.1871985,22.7876313 C89.1871985,18.5026193 86.7831675,16.1774386 83.5168376,16.1774386 C80.2507603,16.1774386 77.8631469,18.4694747 77.8631469,22.7876313 M90.5301521,22.6548 L90.5301521,25.0963663 C90.5301521,29.962294 87.5790387,32.7360651 83.5168376,32.7360651 C79.4548892,32.7360651 76.5368634,29.962294 76.5368634,25.0963663 L76.5368634,22.6548 C76.5368634,17.7552217 79.421549,14.9650048 83.5168376,14.9650048 C87.5456985,14.9650048 90.5301521,17.8217639 90.5301521,22.6548" id="Fill-3" fill="#555555"/>
                    <mask id="mask-2" fill="white">
                        <use xlink:href="#path-1"/>
                    </mask>
                    <g id="Clip-6"/>
                    <path d="M96.1816959,32.7359639 L97.5079794,32.7359639 L97.5079794,15.5463253 L96.1816959,15.5463253 L96.1816959,32.7359639 Z M96.8449639,9.83306024 C97.508232,9.83306024 98.0386443,10.3646386 98.0386443,11.0287952 C98.0386443,11.6932048 97.508232,12.2080843 96.8449639,12.2080843 C96.1816959,12.2080843 95.6679536,11.6932048 95.6679536,11.0287952 C95.6679536,10.3646386 96.1816959,9.83306024 96.8449639,9.83306024 Z" id="Fill-5" fill="#555555" mask="url(#mask-2)"/>
                    <path d="M103.956556,15.5463759 L105.283092,15.5463759 L105.283092,18.7353398 L105.34952,18.7353398 C105.91302,17.1074602 107.670453,15.2640145 110.870608,15.2640145 C114.319046,15.2640145 116.839262,17.4728096 116.839262,21.492159 L116.839262,32.7360145 L115.496309,32.7360145 L115.496309,21.6581349 C115.496309,18.6687976 113.738623,16.5098458 110.671577,16.5098458 C107.073865,16.5098458 105.283092,19.3332072 105.283092,22.2562554 L105.283092,32.7360145 L103.956556,32.7360145 L103.956556,15.5463759 Z" id="Fill-7" fill="#555555" mask="url(#mask-2)"/>
                    <path d="M123.767357,26.2423337 C123.983058,28.4842735 125.856424,30.4775024 129.586739,30.4775024 C132.869739,30.4775024 135.024981,28.8498759 135.024981,26.2423337 C135.024981,24.1995145 133.765125,23.0865145 131.095636,22.3892133 L127.182708,21.3430084 C124.496801,20.6287554 121.960166,18.9345867 121.960166,15.4799602 C121.960166,11.3280325 125.640723,9.05269518 129.636496,9.05269518 C133.433491,9.05269518 137.213563,11.0621169 137.296409,15.3638277 L134.809532,15.3638277 C134.610754,13.1380807 132.936166,11.3110807 129.586739,11.3110807 C126.618955,11.3110807 124.48013,12.7560325 124.48013,15.3139843 C124.48013,17.091141 125.557878,18.3200205 127.829306,18.918141 L131.659388,19.9643458 C135.224012,20.9275627 137.561868,22.5053458 137.561868,26.0763578 C137.561868,30.4608036 133.864641,32.736141 129.271775,32.736141 C123.402636,32.736141 121.346656,29.0988398 121.263811,26.2423337 L123.767357,26.2423337 Z" id="Fill-8" fill="#303030" mask="url(#mask-2)"/>
                    <path d="M143.437548,10.8130265 L145.874667,10.8130265 L145.874667,15.1810265 L149.422873,15.1810265 L149.422873,17.2572434 L145.874667,17.2572434 L145.874667,27.9695205 C145.874667,30.1120265 146.571023,30.6436048 148.776528,30.6436048 C149.074822,30.6436048 149.32361,30.6436048 149.572146,30.6102072 L149.572146,32.6198819 C149.32361,32.6697253 148.743188,32.7360145 148.162765,32.7360145 C144.200332,32.7360145 143.437548,31.1751831 143.437548,27.8199904 L143.437548,10.8130265 Z" id="Fill-9" fill="#303030" mask="url(#mask-2)"/>
                    <path d="M165.005303,26.6574253 L165.005303,24.5149193 L160.362931,24.5149193 C157.826297,24.5149193 156.74855,25.727353 156.74855,27.4215217 C156.74855,29.5804735 158.522653,30.6266783 160.479117,30.6266783 C163.065509,30.6266783 165.005303,28.9990518 165.005303,26.6574253 M159.898694,32.7360398 C156.533102,32.7360398 154.228334,30.6598229 154.228334,27.471112 C154.228334,24.4650759 156.317653,22.5386422 160.280086,22.5216904 L165.005303,22.5216904 L165.005303,20.6451 C165.005303,18.2037867 163.579504,16.8914133 161.109045,16.8914133 C158.721684,16.8914133 157.411818,18.0707024 157.212787,19.9144012 L154.908019,19.9144012 C155.107303,16.8914133 157.179699,14.7820518 161.20856,14.7820518 C164.822942,14.7820518 167.442674,16.7919795 167.442674,20.3627386 L167.442674,32.4536783 L165.07173,32.4536783 L165.07173,30.1947867 L165.005303,30.1947867 C164.176344,31.5901482 162.551514,32.7360398 159.898694,32.7360398" id="Fill-10" fill="#303030" mask="url(#mask-2)"/>
                    <path d="M172.739245,10.8130265 L175.176364,10.8130265 L175.176364,15.1810265 L178.72457,15.1810265 L178.72457,17.2572434 L175.176364,17.2572434 L175.176364,27.9695205 C175.176364,30.1120265 175.87272,30.6436048 178.078225,30.6436048 C178.376266,30.6436048 178.625307,30.6436048 178.873843,30.6102072 L178.873843,32.6198819 C178.625307,32.6697253 178.044885,32.7360145 177.464462,32.7360145 C173.502029,32.7360145 172.739245,31.1751831 172.739245,27.8199904 L172.739245,10.8130265 Z" id="Fill-11" fill="#303030" mask="url(#mask-2)"/>
                    <path d="M189.420942,14.782153 C193.51623,14.782153 195.472694,17.1905747 195.472694,19.9142494 L193.167926,19.9142494 C193.085081,18.5522855 192.206364,16.8748157 189.321426,16.8748157 C187.149514,16.8748157 185.541354,17.8218398 185.541354,19.6817313 C185.541354,21.691406 187.746354,22.173141 189.852091,22.5883337 C193.085081,23.1862012 195.903844,24.000141 195.903844,27.4213699 C195.903844,30.8592976 193.101751,32.736141 189.155736,32.736141 C185.358741,32.736141 182.805689,30.826153 182.805689,27.8365627 L185.19305,27.8365627 C185.425169,29.4307916 186.81788,30.6432253 189.354514,30.6432253 C192.123519,30.6432253 193.483143,29.3478036 193.483143,27.7034783 C193.483143,25.6444663 191.593107,25.2454663 189.03955,24.714141 C185.773473,24.000141 183.137071,23.0531169 183.137071,19.947647 C183.137071,16.3766349 186.121524,14.782153 189.420942,14.782153" id="Fill-12" fill="#303030" mask="url(#mask-2)"/>
                    <path d="M9.74448351,30.7389651 L5.46001443,35.0308084 C1.93832887,31.1918566 5.05154639e-05,26.1723506 5.05154639e-05,20.887688 C5.05154639e-05,15.2781578 2.15630309,10.0291699 6.07099897,6.10773614 C8.42956598,3.74510964 11.3544113,1.96516988 14.5351175,0.957928916 L15.8578649,6.91180843 C13.7943082,7.64630241 11.8939165,8.84836265 10.340566,10.4043867 C7.63445258,13.1154108 6.09802474,16.7248807 6.01517938,20.5686398 C5.93536495,24.333206 7.2588701,27.9419169 9.74448351,30.7389651" id="Fill-13" fill="#FFB347" mask="url(#mask-2)"/>
                    <path d="M20.8133562,20.8823747 L16.2828768,0.487326506 C19.6575624,-0.263360241 23.213851,-0.144950602 26.5726242,0.830663855 C29.9831758,1.82171205 33.1123562,3.67426627 35.6219644,6.18819398 C38.1909284,8.76183253 40.0443407,11.9743265 40.9819077,15.4785434 C41.8485005,18.7219048 41.9207376,22.1646398 41.1915469,25.4401337 L20.8133562,20.8823747 Z" id="Fill-14" fill="#F49132" mask="url(#mask-2)"/>
                    <path d="M31.2382325,38.9544434 C26.3884954,41.7588289 20.7731964,42.5128048 15.4256294,41.0789855 C12.188851,40.2098892 9.17610876,38.5508892 6.70842835,36.280359 L10.99315,31.9885157 C13.6982531,34.3939012 17.1830624,35.7161422 20.8131036,35.7143711 C24.763918,35.7126 28.4790778,34.1712506 31.2728356,31.3724313 C32.8236603,29.8189373 34.0228974,27.9175518 34.7551191,25.8542386 L40.7217531,27.1883711 C39.1595624,32.143612 35.7949799,36.3183108 31.2382325,38.9544434" id="Fill-15" fill="#F56945" mask="url(#mask-2)"/>
                </g>
            </g>
        </g>
    </g>
</svg>