<svg width="133" height="62" viewBox="0 0 133 62" fill="none" xmlns="http://www.w3.org/2000/svg">
<path d="M0 48.6612V7.24975C0 7.1399 0.0549132 7.03006 0.16474 7.03006L9.1156 4.28394C9.28034 4.22902 9.44508 4.33886 9.44508 4.50363V33.6125V48.7161C9.44508 48.8809 9.33525 48.9907 9.17051 48.9907H0.274566C0.109826 48.9358 0 48.826 0 48.6612Z" fill="#242931"/>
<path d="M62.9305 0C66.2802 0 68.8612 2.63627 68.8612 5.87669C68.8612 9.11711 66.2253 11.6985 62.9305 11.6985C59.7455 11.6985 57.1097 9.06219 57.1097 5.87669C57.0548 2.63627 59.7455 0 62.9305 0Z" fill="#FF7E61"/>
<path d="M67.049 16.2021H58.4825C58.2079 16.2021 57.9883 16.4218 57.9883 16.6964V48.5514C57.9883 48.826 58.2079 49.0457 58.4825 49.0457H67.049C67.3235 49.0457 67.5432 48.826 67.5432 48.5514V16.6964C67.5432 16.4218 67.3235 16.2021 67.049 16.2021Z" fill="#242931"/>
<path d="M18.2861 16.312L2.1416 30.5918L19.3294 49.1555C19.3844 49.2105 19.3844 49.2105 19.4393 49.2105H31.1358C31.4653 49.2105 31.63 48.826 31.4104 48.6063L16.2543 31.3607L30.7514 16.7513C30.971 16.5317 30.8063 16.2021 30.5317 16.2021H18.5057C18.3959 16.2021 18.341 16.257 18.2861 16.312Z" fill="#242931"/>
<path d="M110.156 31.9648H100.491V61.1835C100.491 61.2933 100.601 61.4032 100.711 61.3482L109.881 58.4923C109.936 58.4923 109.991 58.3824 109.991 58.3275L110.156 31.9648Z" fill="#242931"/>
<path d="M116.746 48.8259C107.795 48.8259 100.491 41.5213 100.491 32.5689C100.491 23.6166 107.795 16.3668 116.746 16.3668C125.697 16.3668 133 23.6715 133 32.6238C133 41.5762 125.697 48.8259 116.746 48.8259ZM116.746 25.9782C113.121 25.9782 110.156 28.944 110.156 32.5689C110.156 36.1938 113.121 39.1596 116.746 39.1596C120.37 39.1596 123.335 36.1938 123.335 32.5689C123.335 28.944 120.425 25.9782 116.746 25.9782Z" fill="#242931"/>
<path d="M97.2512 38.7752C97.0865 32.7887 91.1558 30.4819 86.7628 28.8343C84.5662 28.0104 82.2599 27.1317 82.1501 26.198C82.0951 25.9783 82.0951 25.3192 82.5894 24.7151C83.1385 24.1109 84.072 23.8363 85.3899 23.8912C87.861 24.0011 88.9044 25.7037 89.2888 26.6923L89.3437 26.8021L89.4535 26.912C89.783 27.2415 90.3321 27.3514 90.7165 27.0767L96.4824 23.6716C96.9766 23.3969 97.1414 22.7928 96.8668 22.2985C94.6703 18.399 90.3321 16.2021 84.8957 16.2021C81.7107 16.2021 78.7454 17.1907 76.494 18.9482C74.0778 20.8156 72.7599 23.4519 72.7599 26.3628C72.7599 30.3721 74.9564 33.3379 79.2946 35.2602C80.0633 35.5897 81.1616 35.8643 82.3697 36.1389C84.7859 36.7431 88.1356 37.5669 87.8061 38.9949C87.6414 39.8187 86.6529 41.1369 84.6212 41.027C82.8639 40.9172 81.3813 39.9835 80.7772 38.5006V38.4457L80.7223 38.3358C80.4477 37.8965 79.8437 37.7317 79.3495 38.0063L73.5836 41.4664C73.0894 41.741 72.9246 42.3452 73.1992 42.8395C75.3957 46.684 79.7339 48.9358 85.1154 48.9358H85.1703C88.9044 48.9358 92.4737 47.5079 94.7252 45.2011C96.4275 43.4436 97.3061 41.1918 97.2512 38.7752Z" fill="#242931"/>
<path d="M49.4218 16.257C40.6906 16.312 33.6068 23.397 33.6068 32.1296V48.826C33.6068 48.8809 33.6617 48.9908 33.7716 48.9908H43.3814C43.4363 48.9908 43.5461 48.9359 43.5461 48.826V33.7224C43.5461 29.5483 46.9507 26.1431 51.1241 26.1431H52.8814C52.9912 26.1431 53.101 26.0332 53.101 25.9783L54.0894 16.7514C54.1444 16.4767 53.9247 16.257 53.6501 16.257H49.4218Z" fill="#242931"/>
</svg>
