<svg xmlns="http://www.w3.org/2000/svg" xmlns:xlink="http://www.w3.org/1999/xlink" viewBox="0 0 400 90"><defs><style>.a,.b{fill:#2a2149;}.b{stroke:#9f2f8e;stroke-width:1.5px;}.c{fill:url(#a);}.d{fill:#a0308e;}.e{fill:#fff;}</style><radialGradient id="a" cx="-546.77" cy="565.66" r="0.58" gradientTransform="translate(22843.47 -23570.12) scale(41.72 41.72)" gradientUnits="userSpaceOnUse"><stop offset="0" stop-color="#fff"/><stop offset="0" stop-color="#fdfdfd"/><stop offset="0.11" stop-color="#cccad3"/><stop offset="0.22" stop-color="#a09dae"/><stop offset="0.33" stop-color="#7b768f"/><stop offset="0.45" stop-color="#5d5776"/><stop offset="0.57" stop-color="#463f62"/><stop offset="0.69" stop-color="#362e54"/><stop offset="0.83" stop-color="#2c244c"/><stop offset="1" stop-color="#292149"/></radialGradient></defs><path class="a" d="M73.84,52a56.75,56.75,0,0,0,.41-7.71V28.54a47.22,47.22,0,0,0-.41-7.7h10.1V23q0,.36,0,.72v.51A12.36,12.36,0,0,1,93.63,20a10.86,10.86,0,0,1,6.54,1.84,6.33,6.33,0,0,1,2.09,2.55A14,14,0,0,1,113,20c7.3,0,11,4,11,11.68V44.3a57.66,57.66,0,0,0,.42,7.66H113.79a55.18,55.18,0,0,0,.41-7.71V33.74c0-3.83-1.13-5.31-4-5.31-2.6,0-5,2-6.21,5.47V44.3a57.65,57.65,0,0,0,.4,7.66H93.73a53.7,53.7,0,0,0,.41-7.71V33.74c0-2.14-.2-3.11-.86-4a3.32,3.32,0,0,0-2.81-1.28c-2.75,0-5.1,2-6.53,5.47V44.25A57.19,57.19,0,0,0,84.35,52Z"/><path class="a" d="M136.81,39.26c.51,4.13,2.91,6.32,6.94,6.32a7.47,7.47,0,0,0,5.16-1.88,5.12,5.12,0,0,0,1.53-2.61l8.87,2.5A14.76,14.76,0,0,1,156,48.84c-2.91,2.86-7,4.34-12,4.34s-8.92-1.43-11.83-4.34a17.3,17.3,0,0,1-4.65-12.44c0-10.1,6.48-16.79,16.22-16.79,8,0,13.52,4.34,15.31,12a37.56,37.56,0,0,1,.76,6.68c0,.33,0,.67.05,1Zm13.28-7c-.72-3.27-2.91-5-6.44-5s-5.81,1.62-6.68,5Z"/><path class="a" d="M162.91,52a56.75,56.75,0,0,0,.41-7.71V28.54a50.83,50.83,0,0,0-.41-7.7h10.15v3.6a14.06,14.06,0,0,1,10.51-4.34c3.51,0,6.32,1,8.21,2.86s2.91,4.54,2.91,8.57V44.3A63.2,63.2,0,0,0,195.1,52H184.43a56.75,56.75,0,0,0,.41-7.71V33.79c0-2-.2-2.91-.81-3.77a4,4,0,0,0-3.37-1.43c-2.86,0-5.41,1.78-7.6,5.36v10.3a62,62,0,0,0,.41,7.71Z"/><path class="a" d="M203.43,19.77a49.64,49.64,0,0,0-.41-7h10.42a56.55,56.55,0,0,0-.41,7v1.07h1.84a33.24,33.24,0,0,0,5-.26v8.47a33.39,33.39,0,0,0-4.69-.31H213V41.81c0,1.43.25,2.14.92,2.59a4.27,4.27,0,0,0,2.34.56,7,7,0,0,0,3.57-.91l.76,7.75a21.79,21.79,0,0,1-7,1c-3.47,0-5.87-.56-7.5-1.78-1.94-1.48-2.66-3.22-2.66-6.69V28.74h-1.94a31.31,31.31,0,0,0-4.43.31V20.53a29.9,29.9,0,0,0,4.53.31h1.84Z"/><path class="a" d="M222.51,36.35c0-10.2,6.54-16.69,16.84-16.69s16.84,6.49,16.84,16.58-6.74,16.89-16.89,16.89-16.79-6.53-16.79-16.78m9.75-.06c0,5.67,2.65,9.08,7.09,9.08s7-3.31,7-9-2.6-9.08-6.94-9.08-7.14,3.36-7.14,9"/><path class="a" d="M282.32,30a16.42,16.42,0,0,0-5.19-1,7.21,7.21,0,0,0-7.6,6.78c0,.17,0,.35,0,.52v8a56.52,56.52,0,0,0,.41,7.7H259.37a56.75,56.75,0,0,0,.41-7.71V28.54a50.83,50.83,0,0,0-.41-7.7h10.15v4c2.5-3.27,5.57-4.65,10.2-4.65a20.91,20.91,0,0,1,5,.62Z"/><path class="b" d="M302.5,18.56a18,18,0,0,1,5.41.74,14.87,14.87,0,0,1,4,1.93l-1.09,5.64a17.37,17.37,0,0,0-4.23-2.35,12.85,12.85,0,0,0-4.55-.78,9.36,9.36,0,0,0-3.9.8,8.9,8.9,0,0,0-3.13,2.3,10.8,10.8,0,0,0-2.08,3.69,15.14,15.14,0,0,0-.75,4.95,14.44,14.44,0,0,0,.69,4.61,10.2,10.2,0,0,0,2,3.56A8.75,8.75,0,0,0,297.91,46a9.71,9.71,0,0,0,4.11.82,13.12,13.12,0,0,0,5.17-1A16,16,0,0,0,311.58,43l.63,5.47A16.65,16.65,0,0,1,309.85,50a14.89,14.89,0,0,1-2.46,1.07,16.23,16.23,0,0,1-2.76.63,24.9,24.9,0,0,1-3.23.2,15.63,15.63,0,0,1-5.92-1.11,13.89,13.89,0,0,1-4.82-3.22,15.32,15.32,0,0,1-3.26-5.06,18.25,18.25,0,0,1-1.19-6.74,19.55,19.55,0,0,1,1.14-6.68,16.61,16.61,0,0,1,3.27-5.48,15.21,15.21,0,0,1,5.13-3.71,16.34,16.34,0,0,1,6.75-1.37"/><path class="b" d="M323.14,36.27c0,1,0,2.18.05,3.54s.07,2.74.12,4.14.12,2.73.19,4,.16,2.34.27,3.2h-6.43V15.74q0-4.58-.16-8.28c-.11-2.47-.26-4.62-.47-6.44h6.43Z"/><path class="b" d="M330.14,7.23a5.15,5.15,0,0,1,.28-1.65,4.15,4.15,0,0,1,.8-1.34,3.69,3.69,0,0,1,1.24-.91,3.82,3.82,0,0,1,1.6-.33,4.13,4.13,0,0,1,1.63.33,3.78,3.78,0,0,1,1.29.91,4.45,4.45,0,0,1,.84,1.34,4.39,4.39,0,0,1,0,3.29,4.63,4.63,0,0,1-.84,1.35,3.78,3.78,0,0,1-1.29.91,4.13,4.13,0,0,1-1.63.33,3.72,3.72,0,0,1-2.84-1.24,4.31,4.31,0,0,1-.8-1.35,5.09,5.09,0,0,1-.28-1.64m6.9,29c0,1,0,2.19,0,3.56s.07,2.75.12,4.14.12,2.74.19,4,.16,2.33.27,3.17h-6.43V30c0-1.51,0-2.88-.06-4.21s-.08-2.56-.14-3.7-.15-2.11-.25-2.93h6.27Z"/><path class="b" d="M387.47,53.89h-8l-3.31-3.38a21.32,21.32,0,0,1-11.74,3.38,22,22,0,0,1-14.89-5.68,20.34,20.34,0,0,1-7.07-16,21,21,0,0,1,6.69-15.89,22,22,0,0,1,29.71-.76,21.19,21.19,0,0,1,7.66,17,20.57,20.57,0,0,1-6,14.56ZM370,36.42l6.11,6.09a14.37,14.37,0,0,0,4-10.4,15.59,15.59,0,0,0-4.5-11.38,15.08,15.08,0,0,0-11.2-4.59,14.71,14.71,0,0,0-11.14,4.59,15.94,15.94,0,0,0-4.35,11.54,14.8,14.8,0,0,0,4.54,11.17,15.25,15.25,0,0,0,10.78,4.47A14.73,14.73,0,0,0,371.65,46l-9.92-9.6Z"/><path class="a" d="M391.72,44.84v.94h-1.81v4.75h-1.13V45.78H387v-.94Zm6.13,5.69-.21-3.34V45.6h-.07c-.14.5-.31,1.17-.48,1.69l-1,3.16h-1.24l-1-3.24c-.1-.44-.27-1.11-.4-1.61h-.06v1.59l-.21,3.34h-1.13l.42-5.69h1.69l1,2.79c.12.44.23.85.37,1.44h0c.15-.52.28-1,.4-1.42l1-2.81h1.63l.44,5.69Z"/><path class="c" d="M56.52,35A22.57,22.57,0,1,0,43.37,55.49l.29-8.89,5.85,4.71A22.49,22.49,0,0,0,56.52,35ZM42.81,45.45a33.33,33.33,0,0,0,.27-4.89V33.89c0-2.43-.72-3.37-2.56-3.37-1.65,0-3.14,1.3-4,3.47V40.6a34.2,34.2,0,0,0,.26,4.85H30.08a33.32,33.32,0,0,0,.26-4.89V33.89a3.77,3.77,0,0,0-.55-2.53A2.11,2.11,0,0,0,28,30.55c-1.75,0-3.23,1.27-4.14,3.47v6.54a34.77,34.77,0,0,0,.26,4.89H17.46a36.34,36.34,0,0,0,.26-4.89v-10a30.65,30.65,0,0,0-.26-4.88h6.42V27a3.53,3.53,0,0,1,0,.46v.32a7.82,7.82,0,0,1,6.2-2.64,7,7,0,0,1,4.15,1.17A4,4,0,0,1,35.5,28a8.8,8.8,0,0,1,6.8-2.82c4.63,0,7,2.53,7,7.41v8a35.76,35.76,0,0,0,.27,4.85Z"/><path class="d" d="M34,65.51a30.49,30.49,0,0,0,6.1-.61,10,10,0,0,0,2.61-.79c.23-.12.25-.07.38-.23l.27-8.39a22.64,22.64,0,1,1,6.14-4.18l6.22,5c.31-.32.94-1,1.33-1.43A30.36,30.36,0,1,0,34,65.51Z"/><path class="e" d="M49.29,32.56c0-4.88-2.36-7.41-7-7.41A8.83,8.83,0,0,0,35.5,28a4,4,0,0,0-1.32-1.62,6.9,6.9,0,0,0-4.1-1.21,7.83,7.83,0,0,0-6.18,2.66v-.32a3.53,3.53,0,0,0,0-.46V25.7H17.46a30.65,30.65,0,0,1,.26,4.88v10a36.34,36.34,0,0,1-.26,4.89h6.68a34.77,34.77,0,0,1-.26-4.89V34c.91-2.2,2.39-3.47,4.14-3.47a2.11,2.11,0,0,1,1.78.81,3.77,3.77,0,0,1,.55,2.53v6.67a33.32,33.32,0,0,1-.26,4.89h6.74a34.2,34.2,0,0,1-.26-4.85V34c.81-2.17,2.3-3.47,4-3.47,1.84,0,2.56.94,2.56,3.37v6.67a33.33,33.33,0,0,1-.27,4.89h6.75a35.76,35.76,0,0,1-.27-4.85Z"/><path class="a" d="M34,68.17c6.8,0,8.67-1.39,8.67-1.39l.34-.2v.49l4.58-6.19L52.07,71l4-2.18L51.37,59l6.69-.82-.43-.35c.13,0,.22,0,.23,0,4.68-5.7,9.2-14.48,9.2-22.68A33,33,0,1,0,34,68.17Zm0-63.4A30.37,30.37,0,0,1,57.06,54.88a19.35,19.35,0,0,1-1.33,1.43l-6.22-5L43.66,46.6l-.29,8.89-.3,8.39c-.13.16-.15.11-.38.23a10.36,10.36,0,0,1-2.61.79A30.38,30.38,0,1,1,27.77,5.4,30.79,30.79,0,0,1,34,4.77Z"/><rect class="e" x="33.07" y="56.59" width="20.52" height="0.46" transform="translate(-14.92 98.21) rotate(-88.07)"/><rect class="e" x="50.58" y="43.08" width="0.46" height="18.53" transform="translate(-21.83 59.12) rotate(-51.18)"/><polygon class="e" points="43.76 46.55 43.43 46.73 43.46 46.15 43.82 46.44 43.76 46.55"/></svg>