<?xml version="1.0" encoding="utf-8"?>
<!-- Generator: Adobe Illustrator 25.2.3, SVG Export Plug-In . SVG Version: 6.00 Build 0)  -->
<svg version="1.1" id="Layer_1" xmlns="http://www.w3.org/2000/svg" xmlns:xlink="http://www.w3.org/1999/xlink" x="0px" y="0px"
	 viewBox="0 0 470 185" style="enable-background:new 0 0 470 185;" xml:space="preserve">
<style type="text/css">
	.st0{fill:#DB3E3F;}
	.st1{fill:#FFFFFF;}
</style>
<g>
	<polygon class="st0" points="470,48.8 31.6,48.8 0.2,0 0,144.2 49.1,144.2 77.2,185 77.2,144.2 470,144.2 	"/>
	<g>
		<path class="st1" d="M89.3,136.6l-19.2-25.3l0.3,50.5l-11.5-17.6L29,98.5l-0.2,38.1H8.1l0.2-87.8V27.7L22,48.8l27,41.8l0.1-17.9
			V56.4h30.8c15.7,0,27.6,7.4,27.6,24.2c0,10.8-6.1,20.2-17.4,22.2l25.7,33.7L89.3,136.6z"/>
		<path class="st1" d="M143.8,127.1c-18.2,0-30.9-12.5-30.9-30.3c0-18.5,12.6-30.9,31.4-30.9c9.2,0,16.6,3.1,21.8,9.2
			c1.8,2.1,3.3,4.5,4.4,7l-15.5,7.8l-0.4-1.2c-1.9-5.1-5.9-8-10.9-8c-6.6,0-13.2,5.6-13.2,16.2s6.8,16,13.4,16
			c5.5,0,9.2-2.6,10.2-7.1l-11.5,0.1L142.4,92h31.2v1.2c-0.1,8-0.7,15.2-5.9,22.5C162.3,123.2,154,127.1,143.8,127.1z"/>
		<polygon class="st1" points="283.4,125.3 279.8,96.7 267.8,125.3 260.3,125.3 248.9,96.7 244.7,125.3 211.8,125.3 208.2,115.7 
			189.9,115.7 186.1,125.3 168.1,125.3 190.4,67.7 207.9,67.7 228.4,121.5 237.6,67.7 253.7,67.7 264.2,95 275.3,67.7 291.6,67.7 
			300.4,125.2 		"/>
		<rect x="303.8" y="67.7" class="st1" width="16.9" height="57.6"/>
		<polygon class="st1" points="385.8,125.3 369.5,125.3 344.7,93.6 344.7,125.3 327.8,125.3 327.8,67.7 344,67.7 368.8,99.2 
			368.8,67.7 385.7,67.7 		"/>
		<path class="st1" d="M450.5,93.3c-0.1,8-0.7,15.2-5.9,22.5c-5.4,7.4-13.7,11.3-24,11.3c-18.2,0-30.9-12.5-30.9-30.3
			c0-18.5,12.6-30.9,31.4-30.9c9.2,0,16.6,3.1,21.8,9.2c1.8,2.1,3.3,4.5,4.5,7l-15.5,7.8l-0.4-1.2c-1.9-5.1-5.9-8-10.9-8
			c-6.6,0-13.2,5.6-13.2,16.2s6.8,16,13.5,16c5.5,0,9.2-2.6,10.2-7.1l-11.5,0.1L419.4,92h31.2L450.5,93.3z"/>
	</g>
	<polygon class="st0" points="193.3,103.2 204.9,103.2 199.1,86 	"/>
	<path class="st0" d="M73.2,72.1h-3.3L70,91.7h3.2c6.7,0,14.3-1.2,14.3-9.8S79.9,72.1,73.2,72.1z"/>
</g>
</svg>
