<svg xmlns="http://www.w3.org/2000/svg" width="181" height="57" viewBox="0 0 181 57"><defs><style>.a{fill:#090909;}.b{fill:#ee1616;}</style></defs><g transform="translate(-305 -111)"><path class="a" d="M3.873-11.968H.08v-2.2H10.408v2.2H6.615v9.461H3.873Zm13.545.366a3.784,3.784,0,0,1,2.734,1,3.925,3.925,0,0,1,1.041,2.965v5.13H18.552V-7.238a2.31,2.31,0,0,0-.474-1.591,1.754,1.754,0,0,0-1.371-.525,2.12,2.12,0,0,0-1.591.608,2.492,2.492,0,0,0-.593,1.807v4.431H11.881V-14.867h2.641v4.331a3.521,3.521,0,0,1,1.27-.791A4.661,4.661,0,0,1,17.417-11.6ZM32.79-6.955q0,.05-.051.7H25.849a2.11,2.11,0,0,0,.88,1.316,2.951,2.951,0,0,0,1.727.483,3.549,3.549,0,0,0,1.261-.208,3.061,3.061,0,0,0,1.024-.658l1.405,1.5a4.763,4.763,0,0,1-3.759,1.449,6.027,6.027,0,0,1-2.726-.591,4.38,4.38,0,0,1-1.829-1.641,4.465,4.465,0,0,1-.643-2.382,4.522,4.522,0,0,1,.635-2.374,4.417,4.417,0,0,1,1.744-1.649,5.188,5.188,0,0,1,2.48-.591,5.147,5.147,0,0,1,2.421.566,4.171,4.171,0,0,1,1.7,1.624A4.781,4.781,0,0,1,32.79-6.955ZM28.067-9.636a2.3,2.3,0,0,0-1.507.5,2.118,2.118,0,0,0-.745,1.366H30.3a2.139,2.139,0,0,0-.745-1.358A2.25,2.25,0,0,0,28.067-9.636ZM43.8-2.307a9.846,9.846,0,0,1-2.717-.375,6.419,6.419,0,0,1-2.108-.974L39.9-5.689a6.361,6.361,0,0,0,1.812.883,6.907,6.907,0,0,0,2.1.333,3.4,3.4,0,0,0,1.727-.341,1.029,1.029,0,0,0,.559-.908.862.862,0,0,0-.33-.691,2.516,2.516,0,0,0-.847-.441q-.516-.167-1.4-.366a19.551,19.551,0,0,1-2.218-.633A3.6,3.6,0,0,1,39.825-8.87a2.715,2.715,0,0,1-.618-1.866,3.208,3.208,0,0,1,.559-1.841,3.748,3.748,0,0,1,1.685-1.308,6.974,6.974,0,0,1,2.751-.483,9.252,9.252,0,0,1,2.218.267,6.612,6.612,0,0,1,1.9.766l-.847,2.049a6.69,6.69,0,0,0-3.285-.916,3.121,3.121,0,0,0-1.7.366,1.115,1.115,0,0,0-.55.966.945.945,0,0,0,.635.891,10.09,10.09,0,0,0,1.939.575,19.552,19.552,0,0,1,2.218.633,3.675,3.675,0,0,1,1.481,1,2.652,2.652,0,0,1,.618,1.849A3.148,3.148,0,0,1,48.257-4.1a3.8,3.8,0,0,1-1.7,1.308A7.038,7.038,0,0,1,43.8-2.307Zm11.242-.067a5.535,5.535,0,0,1-2.582-.591,4.44,4.44,0,0,1-1.786-1.641,4.465,4.465,0,0,1-.643-2.382,4.465,4.465,0,0,1,.643-2.382,4.44,4.44,0,0,1,1.786-1.641,5.535,5.535,0,0,1,2.582-.591,5.484,5.484,0,0,1,2.573.591A4.453,4.453,0,0,1,59.389-9.37a4.465,4.465,0,0,1,.643,2.382,4.465,4.465,0,0,1-.643,2.382,4.453,4.453,0,0,1-1.778,1.641A5.484,5.484,0,0,1,55.037-2.374Zm0-2.132a2.218,2.218,0,0,0,1.668-.675,2.491,2.491,0,0,0,.652-1.807A2.491,2.491,0,0,0,56.705-8.8a2.218,2.218,0,0,0-1.668-.675,2.246,2.246,0,0,0-1.676.675,2.472,2.472,0,0,0-.66,1.807,2.472,2.472,0,0,0,.66,1.807A2.246,2.246,0,0,0,55.037-4.506Zm9.837-6.763h2.336v2H64.942v6.763H62.3V-9.27H60.9v-2H62.3v-.4a3.24,3.24,0,0,1,.923-2.432,3.568,3.568,0,0,1,2.6-.9,4.923,4.923,0,0,1,1.126.125,2.761,2.761,0,0,1,.889.358l-.694,1.882a1.827,1.827,0,0,0-1.067-.316q-1.2,0-1.2,1.3ZM74.593-2.94a2.736,2.736,0,0,1-.957.425,4.912,4.912,0,0,1-1.194.142,3.583,3.583,0,0,1-2.514-.816,3.1,3.1,0,0,1-.889-2.4V-9.27H67.634v-2h1.405v-2.182h2.641v2.182h2.269v2H71.681v3.648a1.211,1.211,0,0,0,.3.874,1.108,1.108,0,0,0,.838.308,1.716,1.716,0,0,0,1.067-.333Zm16.135-8.528-3.3,8.961h-2.54L82.838-8.071,80.722-2.507h-2.54L74.9-11.469h2.489l2.15,6.063,2.235-6.063h2.235l2.167,6.063,2.218-6.063Zm4.791-.133a4.792,4.792,0,0,1,3.251.991A3.76,3.76,0,0,1,99.9-7.621v5.114H97.432V-3.623a2.961,2.961,0,0,1-2.777,1.249,4.371,4.371,0,0,1-1.82-.35,2.7,2.7,0,0,1-1.177-.966,2.485,2.485,0,0,1-.406-1.4,2.321,2.321,0,0,1,.957-1.966,4.936,4.936,0,0,1,2.954-.716h2.1a1.642,1.642,0,0,0-.525-1.308,2.338,2.338,0,0,0-1.575-.458,4.667,4.667,0,0,0-1.431.225,3.807,3.807,0,0,0-1.194.608l-.948-1.816a5.765,5.765,0,0,1,1.786-.8A8.125,8.125,0,0,1,95.519-11.6Zm-.2,7.479a2.33,2.33,0,0,0,1.2-.308,1.692,1.692,0,0,0,.745-.908v-.916H95.451q-1.625,0-1.625,1.049a.93.93,0,0,0,.4.791A1.814,1.814,0,0,0,95.316-4.123ZM105-10.286a2.93,2.93,0,0,1,1.278-.983,4.813,4.813,0,0,1,1.854-.333v2.4q-.44-.033-.593-.033a2.444,2.444,0,0,0-1.778.625,2.5,2.5,0,0,0-.643,1.874v4.231h-2.641v-8.961H105Zm13.731,3.331q0,.05-.051.7H111.79a2.11,2.11,0,0,0,.88,1.316,2.951,2.951,0,0,0,1.727.483,3.549,3.549,0,0,0,1.261-.208,3.061,3.061,0,0,0,1.024-.658l1.405,1.5a4.763,4.763,0,0,1-3.759,1.449,6.027,6.027,0,0,1-2.726-.591,4.38,4.38,0,0,1-1.829-1.641,4.465,4.465,0,0,1-.643-2.382,4.522,4.522,0,0,1,.635-2.374,4.417,4.417,0,0,1,1.744-1.649,5.188,5.188,0,0,1,2.48-.591,5.147,5.147,0,0,1,2.421.566,4.171,4.171,0,0,1,1.7,1.624A4.781,4.781,0,0,1,118.731-6.955Zm-4.724-2.682a2.3,2.3,0,0,0-1.507.5,2.118,2.118,0,0,0-.745,1.366h4.487a2.139,2.139,0,0,0-.745-1.358A2.249,2.249,0,0,0,114.008-9.636ZM1.418,6.4H6.8a7.671,7.671,0,0,1,3.412.725,5.484,5.484,0,0,1,2.3,2.04,5.668,5.668,0,0,1,.821,3.065,5.668,5.668,0,0,1-.821,3.065,5.484,5.484,0,0,1-2.3,2.04,7.671,7.671,0,0,1-3.412.725H1.418Zm5.249,9.444A4.022,4.022,0,0,0,9.5,14.874a3.413,3.413,0,0,0,1.058-2.64A3.413,3.413,0,0,0,9.5,9.594,4.022,4.022,0,0,0,6.666,8.62H4.16v7.229Zm17.659-2.232q0,.05-.051.7H17.383a2.11,2.11,0,0,0,.88,1.316,2.951,2.951,0,0,0,1.727.483,3.549,3.549,0,0,0,1.261-.208,3.061,3.061,0,0,0,1.024-.658l1.405,1.5A4.763,4.763,0,0,1,19.923,18.2a6.027,6.027,0,0,1-2.726-.591,4.38,4.38,0,0,1-1.829-1.641,4.465,4.465,0,0,1-.643-2.382,4.522,4.522,0,0,1,.635-2.374A4.417,4.417,0,0,1,17.1,9.561a5.478,5.478,0,0,1,4.9-.025,4.171,4.171,0,0,1,1.7,1.624A4.781,4.781,0,0,1,24.325,13.617ZM19.6,10.935a2.3,2.3,0,0,0-1.507.5,2.118,2.118,0,0,0-.745,1.366h4.487a2.139,2.139,0,0,0-.745-1.358A2.25,2.25,0,0,0,19.6,10.935ZM35.144,9.1,31.3,18.064H28.575L24.748,9.1h2.726L30,15.2,32.6,9.1Zm9.938,4.514q0,.05-.051.7H38.141a2.11,2.11,0,0,0,.88,1.316,2.951,2.951,0,0,0,1.727.483,3.549,3.549,0,0,0,1.261-.208,3.061,3.061,0,0,0,1.024-.658l1.405,1.5A4.763,4.763,0,0,1,40.68,18.2a6.027,6.027,0,0,1-2.726-.591,4.38,4.38,0,0,1-1.829-1.641,4.465,4.465,0,0,1-.643-2.382,4.522,4.522,0,0,1,.635-2.374,4.417,4.417,0,0,1,1.744-1.649,5.478,5.478,0,0,1,4.9-.025,4.171,4.171,0,0,1,1.7,1.624A4.781,4.781,0,0,1,45.082,13.617Zm-4.724-2.682a2.3,2.3,0,0,0-1.507.5,2.118,2.118,0,0,0-.745,1.366h4.487a2.139,2.139,0,0,0-.745-1.358A2.25,2.25,0,0,0,40.358,10.935ZM47.029,5.7H49.67V18.064H47.029ZM56.646,18.2a5.535,5.535,0,0,1-2.582-.591,4.514,4.514,0,0,1,0-8.045,5.914,5.914,0,0,1,5.155,0,4.522,4.522,0,0,1,0,8.045A5.484,5.484,0,0,1,56.646,18.2Zm0-2.132a2.218,2.218,0,0,0,1.668-.675,2.491,2.491,0,0,0,.652-1.807,2.491,2.491,0,0,0-.652-1.807,2.218,2.218,0,0,0-1.668-.675,2.246,2.246,0,0,0-1.676.675,2.472,2.472,0,0,0-.66,1.807,2.472,2.472,0,0,0,.66,1.807A2.246,2.246,0,0,0,56.646,16.065Zm12.326-7.1a4.7,4.7,0,0,1,2.311.575,4.16,4.16,0,0,1,1.634,1.616,4.815,4.815,0,0,1,.593,2.424,4.815,4.815,0,0,1-.593,2.424,4.16,4.16,0,0,1-1.634,1.616,4.7,4.7,0,0,1-2.311.575,3.547,3.547,0,0,1-2.743-1.083V21.3H63.588V9.1H66.11v1.033A3.53,3.53,0,0,1,68.972,8.969Zm-.457,7.1a2.218,2.218,0,0,0,1.668-.675,2.491,2.491,0,0,0,.652-1.807,2.491,2.491,0,0,0-.652-1.807,2.4,2.4,0,0,0-3.335,0,2.491,2.491,0,0,0-.652,1.807,2.491,2.491,0,0,0,.652,1.807A2.218,2.218,0,0,0,68.514,16.065Zm18.607-7.1a3.706,3.706,0,0,1,2.717.991,4,4,0,0,1,1.007,2.973v5.13H88.205V13.333a2.4,2.4,0,0,0-.449-1.591,1.59,1.59,0,0,0-1.278-.525,1.9,1.9,0,0,0-1.473.591,2.521,2.521,0,0,0-.542,1.757v4.5H81.822V13.333q0-2.115-1.727-2.115a1.878,1.878,0,0,0-1.456.591,2.521,2.521,0,0,0-.542,1.757v4.5H75.456V9.1h2.523v1.033a3.334,3.334,0,0,1,1.244-.866,4.249,4.249,0,0,1,1.617-.3,3.97,3.97,0,0,1,1.744.375,3.073,3.073,0,0,1,1.253,1.091,3.728,3.728,0,0,1,1.414-1.083A4.523,4.523,0,0,1,87.121,8.969Zm15.305,4.647q0,.05-.051.7H95.485a2.11,2.11,0,0,0,.88,1.316,2.951,2.951,0,0,0,1.727.483,3.549,3.549,0,0,0,1.261-.208,3.061,3.061,0,0,0,1.024-.658l1.405,1.5A4.763,4.763,0,0,1,98.025,18.2a6.027,6.027,0,0,1-2.726-.591,4.38,4.38,0,0,1-1.829-1.641,4.465,4.465,0,0,1-.643-2.382,4.522,4.522,0,0,1,.635-2.374,4.417,4.417,0,0,1,1.744-1.649,5.478,5.478,0,0,1,4.9-.025,4.171,4.171,0,0,1,1.7,1.624A4.781,4.781,0,0,1,102.427,13.617ZM97.7,10.935a2.3,2.3,0,0,0-1.507.5,2.118,2.118,0,0,0-.745,1.366h4.487a2.139,2.139,0,0,0-.745-1.358A2.25,2.25,0,0,0,97.7,10.935ZM109.91,8.969a3.784,3.784,0,0,1,2.734,1,3.925,3.925,0,0,1,1.041,2.965v5.13h-2.641V13.333a2.31,2.31,0,0,0-.474-1.591,1.754,1.754,0,0,0-1.371-.525,2.12,2.12,0,0,0-1.591.608,2.492,2.492,0,0,0-.593,1.807v4.431h-2.641V9.1H106.9v1.049a3.505,3.505,0,0,1,1.3-.874A4.608,4.608,0,0,1,109.91,8.969Zm12.224,8.662a2.736,2.736,0,0,1-.957.425,4.912,4.912,0,0,1-1.194.142,3.583,3.583,0,0,1-2.514-.816,3.1,3.1,0,0,1-.889-2.4V11.3h-1.405v-2h1.405V7.12h2.641V9.3h2.269v2h-2.269v3.648a1.211,1.211,0,0,0,.3.874,1.108,1.108,0,0,0,.838.308,1.716,1.716,0,0,0,1.067-.333ZM7.089,38.835a6.9,6.9,0,0,1-3.276-.775,5.931,5.931,0,0,1,0-10.511,6.934,6.934,0,0,1,3.293-.775,7.006,7.006,0,0,1,2.785.533,5.572,5.572,0,0,1,2.091,1.532l-1.761,1.6a3.811,3.811,0,0,0-2.98-1.366,4.009,4.009,0,0,0-1.964.475,3.4,3.4,0,0,0-1.346,1.324,4.11,4.11,0,0,0,0,3.864,3.4,3.4,0,0,0,1.346,1.324,4.009,4.009,0,0,0,1.964.475,3.792,3.792,0,0,0,2.98-1.383l1.761,1.6a5.481,5.481,0,0,1-2.1,1.549A7.068,7.068,0,0,1,7.089,38.835Zm10.751-.067a5.535,5.535,0,0,1-2.582-.591,4.514,4.514,0,0,1,0-8.045,5.535,5.535,0,0,1,2.582-.591,5.484,5.484,0,0,1,2.573.591,4.522,4.522,0,0,1,0,8.045A5.484,5.484,0,0,1,17.84,38.769Zm0-2.132a2.218,2.218,0,0,0,1.668-.675,2.831,2.831,0,0,0,0-3.615,2.218,2.218,0,0,0-1.668-.675,2.246,2.246,0,0,0-1.676.675,2.8,2.8,0,0,0,0,3.615A2.246,2.246,0,0,0,17.84,36.636Zm18.607-7.1a3.706,3.706,0,0,1,2.717.991A4,4,0,0,1,40.172,33.5v5.13H37.531V33.9a2.4,2.4,0,0,0-.449-1.591,1.59,1.59,0,0,0-1.278-.525,1.9,1.9,0,0,0-1.473.591,2.521,2.521,0,0,0-.542,1.757v4.5H31.148V33.9q0-2.115-1.727-2.115a1.878,1.878,0,0,0-1.456.591,2.521,2.521,0,0,0-.542,1.757v4.5H24.782V29.674H27.3v1.033a3.334,3.334,0,0,1,1.244-.866,4.249,4.249,0,0,1,1.617-.3,3.97,3.97,0,0,1,1.744.375,3.073,3.073,0,0,1,1.253,1.091,3.728,3.728,0,0,1,1.414-1.083A4.523,4.523,0,0,1,36.447,29.541Zm11.665,0a4.7,4.7,0,0,1,2.311.575,4.161,4.161,0,0,1,1.634,1.616,5.252,5.252,0,0,1,0,4.847,4.161,4.161,0,0,1-1.634,1.616,4.7,4.7,0,0,1-2.311.575,3.547,3.547,0,0,1-2.743-1.083v4.181H42.729V29.674h2.523v1.033A3.53,3.53,0,0,1,48.113,29.541Zm-.457,7.1a2.218,2.218,0,0,0,1.668-.675,2.831,2.831,0,0,0,0-3.615,2.4,2.4,0,0,0-3.335,0,2.831,2.831,0,0,0,0,3.615A2.218,2.218,0,0,0,47.656,36.636Zm10.463-7.1a4.792,4.792,0,0,1,3.251.991,3.76,3.76,0,0,1,1.134,2.99v5.114H60.032V37.519a2.96,2.96,0,0,1-2.777,1.249,4.371,4.371,0,0,1-1.82-.35,2.7,2.7,0,0,1-1.177-.966,2.485,2.485,0,0,1-.406-1.4,2.321,2.321,0,0,1,.957-1.966,4.936,4.936,0,0,1,2.954-.716h2.1a1.642,1.642,0,0,0-.525-1.308,2.338,2.338,0,0,0-1.575-.458,4.667,4.667,0,0,0-1.431.225,3.807,3.807,0,0,0-1.194.608l-.948-1.816a5.765,5.765,0,0,1,1.786-.8A8.125,8.125,0,0,1,58.119,29.541Zm-.2,7.479a2.33,2.33,0,0,0,1.2-.308,1.692,1.692,0,0,0,.745-.908v-.916H58.051q-1.625,0-1.625,1.049a.93.93,0,0,0,.4.791A1.814,1.814,0,0,0,57.916,37.02Zm12.7-7.479a3.784,3.784,0,0,1,2.734,1A3.925,3.925,0,0,1,74.389,33.5v5.13H71.748V33.9a2.31,2.31,0,0,0-.474-1.591,1.753,1.753,0,0,0-1.371-.525,2.12,2.12,0,0,0-1.591.608,2.492,2.492,0,0,0-.593,1.807v4.431H65.077V29.674H67.6v1.049a3.505,3.505,0,0,1,1.3-.874A4.608,4.608,0,0,1,70.614,29.541Zm15.221.133L81.72,39.185a4.684,4.684,0,0,1-1.549,2.182A3.84,3.84,0,0,1,77.945,42a4.694,4.694,0,0,1-1.405-.217,3.119,3.119,0,0,1-1.134-.6l.965-1.849a2.275,2.275,0,0,0,.7.416,2.222,2.222,0,0,0,.787.15,1.413,1.413,0,0,0,.88-.258,2.193,2.193,0,0,0,.61-.858l.034-.083-3.945-9.028h2.726l2.557,6.08,2.573-6.08Z" transform="translate(363.866 126)"/><g transform="translate(305 111.846)"><path class="b" d="M44.867,52.4V44.91h7.618V52.4ZM0,52.4V44.91H7.619V52.4Zm22.856,0V44.909H15.238V37.425h7.619V29.94H7.619v7.484H0V22.455H7.619V7.485h7.619v14.97h22.01V15.8H29.629V0h7.619V7.485h7.619v14.97h7.618v14.97H44.867V29.94H30.476v7.484h7.618v7.484H30.476v7.485ZM44.867,15.8V0h7.618V15.8Zm-29.629,0V0h7.619V15.8ZM0,15.8V0H7.619V15.8Z"/></g></g></svg>