<svg xmlns="http://www.w3.org/2000/svg" viewBox="0 0 227.92 43.52"><defs><style>.cls-1{fill:#010101;}.cls-2{fill:#faa31b;}.cls-3{fill:#4399d4;}.cls-4{fill:#ed1459;}.cls-5{fill:#745da8;}</style></defs><g id="Layer_2" data-name="Layer 2"><g id="Layer_1-2" data-name="Layer 1"><path class="cls-1" d="M68,32.64a13.16,13.16,0,0,1-4.13-.57,8.94,8.94,0,0,1-2.8-1.41A6.29,6.29,0,0,1,59.46,29a3.34,3.34,0,0,1-.57-1.41.77.77,0,0,1,.26-.7,1,1,0,0,1,.67-.27H63a1.11,1.11,0,0,1,.28,0,1.07,1.07,0,0,1,.33.25l1.1.92a5.57,5.57,0,0,0,1.39.83,6,6,0,0,0,4.66-.28,2.12,2.12,0,0,0,.6-3.17,4.14,4.14,0,0,0-1.71-.94,32.51,32.51,0,0,0-3.55-.91A15,15,0,0,1,62.36,22a5.6,5.6,0,0,1-2.22-2,5.5,5.5,0,0,1,.22-5.83,6.93,6.93,0,0,1,2.82-2.35,10.43,10.43,0,0,1,4.66-.93,11.88,11.88,0,0,1,3.78.54,9.72,9.72,0,0,1,2.68,1.35,7.05,7.05,0,0,1,1.64,1.64,3.09,3.09,0,0,1,.6,1.43.78.78,0,0,1-.24.7.9.9,0,0,1-.65.26h-3a.73.73,0,0,1-.36-.08,1.55,1.55,0,0,1-.32-.2l-1-.85a5.72,5.72,0,0,0-1.27-.78,4.71,4.71,0,0,0-2-.34,3.62,3.62,0,0,0-2.34.66,2.07,2.07,0,0,0-.81,1.67A1.87,1.87,0,0,0,65,18.07a3.49,3.49,0,0,0,1.55.95,25,25,0,0,0,3.54.93,12.88,12.88,0,0,1,4.29,1.43,5.78,5.78,0,0,1,2.26,2.17,5.68,5.68,0,0,1,.67,2.72,5.41,5.41,0,0,1-1.07,3.27,7,7,0,0,1-3.14,2.27A14,14,0,0,1,68,32.64Z"/><path class="cls-1" d="M90.82,32.64a11.81,11.81,0,0,1-5.42-1.13,7.78,7.78,0,0,1-3.34-3.18,11,11,0,0,1-1.31-4.8c0-.48,0-1.07,0-1.77s0-1.29,0-1.77a10.7,10.7,0,0,1,1.35-4.82A8.07,8.07,0,0,1,85.48,12a13.18,13.18,0,0,1,10.68,0,8.1,8.1,0,0,1,3.39,3.16A10.7,10.7,0,0,1,100.9,20c0,.48,0,1.07,0,1.77s0,1.29,0,1.77a11.15,11.15,0,0,1-1.31,4.8,7.81,7.81,0,0,1-3.35,3.18A11.78,11.78,0,0,1,90.82,32.64Zm0-4a4.14,4.14,0,0,0,3.31-1.35,6.36,6.36,0,0,0,1.29-4c0-.4,0-.93,0-1.57s0-1.17,0-1.57a6.39,6.39,0,0,0-1.29-4,4.67,4.67,0,0,0-6.61,0,6.39,6.39,0,0,0-1.29,4c0,.4,0,.92,0,1.57s0,1.17,0,1.57a6.36,6.36,0,0,0,1.29,4A4.13,4.13,0,0,0,90.82,28.65Z"/><path class="cls-1" d="M124.52,32.64a11.81,11.81,0,0,1-5.42-1.13,7.78,7.78,0,0,1-3.34-3.18,11,11,0,0,1-1.31-4.8c0-.48,0-1.07,0-1.77s0-1.29,0-1.77a10.7,10.7,0,0,1,1.35-4.82A8.07,8.07,0,0,1,119.18,12a13.18,13.18,0,0,1,10.68,0,8.1,8.1,0,0,1,3.39,3.16A10.7,10.7,0,0,1,134.6,20c0,.48,0,1.07,0,1.77s0,1.29,0,1.77a11.15,11.15,0,0,1-1.31,4.8,7.81,7.81,0,0,1-3.35,3.18A11.78,11.78,0,0,1,124.52,32.64Zm0-4a4.14,4.14,0,0,0,3.31-1.35,6.36,6.36,0,0,0,1.29-4c0-.4,0-.93,0-1.57s0-1.17,0-1.57a6.39,6.39,0,0,0-1.29-4,4.67,4.67,0,0,0-6.61,0,6.39,6.39,0,0,0-1.29,4c0,.4,0,.92,0,1.57s0,1.17,0,1.57a6.36,6.36,0,0,0,1.29,4A4.13,4.13,0,0,0,124.52,28.65Z"/><path class="cls-1" d="M158,32.64a9.67,9.67,0,0,1-7.09-2.58,10.45,10.45,0,0,1-2.82-7.33,9.78,9.78,0,0,1,0-1,8.63,8.63,0,0,1,0-1,12,12,0,0,1,1.39-5.24,8.49,8.49,0,0,1,3.4-3.4A10.55,10.55,0,0,1,158,10.88a10.35,10.35,0,0,1,5.48,1.35A8.59,8.59,0,0,1,166.81,16a12.9,12.9,0,0,1,1.12,5.54v.84a.94.94,0,0,1-.28.69,1,1,0,0,1-.72.28H153.55v.32a7.31,7.31,0,0,0,.54,2.6,4.67,4.67,0,0,0,1.49,1.92,3.91,3.91,0,0,0,2.36.72,4.68,4.68,0,0,0,1.9-.34,4.48,4.48,0,0,0,1.24-.79,4.77,4.77,0,0,0,.69-.72,2.11,2.11,0,0,1,.58-.59,1.85,1.85,0,0,1,.67-.1h3.46a1,1,0,0,1,.67.24.7.7,0,0,1,.22.61,3.48,3.48,0,0,1-.66,1.57,7.87,7.87,0,0,1-1.8,1.81A9.85,9.85,0,0,1,162,32.05,12.63,12.63,0,0,1,158,32.64ZM153.55,20h8.9v-.13a6.66,6.66,0,0,0-.52-2.74,4.41,4.41,0,0,0-1.53-1.85,4.65,4.65,0,0,0-4.84,0,4.29,4.29,0,0,0-1.51,1.85,7,7,0,0,0-.5,2.74Z"/><path class="cls-1" d="M189.13,15.63a6.27,6.27,0,0,0-1.53-2.45,7.44,7.44,0,0,0-2.8-1.68,13.05,13.05,0,0,0-4.29-.62,11.72,11.72,0,0,0-4,.6,9.51,9.51,0,0,0-2.7,1.47,5.93,5.93,0,0,0-1.53,1.8,4,4,0,0,0-.52,1.57A.89.89,0,0,0,172,17a.82.82,0,0,0,.66.25h3.19a1,1,0,0,0,.92-.53,3.68,3.68,0,0,1,1.35-1.55,4.3,4.3,0,0,1,2.36-.58,3.82,3.82,0,0,1,2.9.92,3.77,3.77,0,0,1,.85,2.62v1.36l-7,.55a6.32,6.32,0,0,0-5.84,6.31h0a6.33,6.33,0,0,0,6.33,6.33h6.44a5.51,5.51,0,0,0,5.51-5.51V18.62A9.23,9.23,0,0,0,189.13,15.63Zm-6.87,13.13-2.48.15a2.8,2.8,0,0,1-3-2.8h0a2.8,2.8,0,0,1,2.43-2.78l5-.68v4A2.12,2.12,0,0,1,182.26,28.76Z"/><rect class="cls-1" x="138.73" y="3.63" width="5.28" height="28.61" rx="2.41"/><rect class="cls-1" x="105.03" y="3.63" width="5.28" height="28.61" rx="2.41"/><path class="cls-1" d="M194.93,32.34a.92.92,0,0,1-.66-.25,1.07,1.07,0,0,1-.3-.76V16.38a5.5,5.5,0,0,1,5.5-5.5l6.12,0a1.06,1.06,0,0,1,1.07,1.06v1.82a1.06,1.06,0,0,1-1.06,1.06h-4.09a2.12,2.12,0,0,0-2.11,2.12V31.38a.94.94,0,0,1-.28.68,1,1,0,0,1-.72.28Z"/><path class="cls-1" d="M208.08,19.07V31.28a1.05,1.05,0,0,0,1.06,1.06h3.37a1.05,1.05,0,0,0,1.05-1.06V19A4.43,4.43,0,0,1,218,14.55h0A4.43,4.43,0,0,1,222.44,19v12.3a1.05,1.05,0,0,0,1.06,1.06h3.37a1.05,1.05,0,0,0,1-1.06V19.07a8.18,8.18,0,0,0-8.18-8.19h-3.48A8.18,8.18,0,0,0,208.08,19.07Z"/><path class="cls-2" d="M29.2,9.75A15.53,15.53,0,0,1,40.89,15a1.49,1.49,0,0,0,2.62-1.11A15.86,15.86,0,0,0,43,11.05,15.11,15.11,0,0,0,32.26.56a15.55,15.55,0,0,0-19.7,15,14.91,14.91,0,0,0,.12,1.9,1.49,1.49,0,0,0,2.79.53A15.59,15.59,0,0,1,29.2,9.75Z"/><path class="cls-3" d="M9.75,14.32A15.53,15.53,0,0,1,15,2.63,1.49,1.49,0,0,0,13.93,0a15.86,15.86,0,0,0-2.88.55A15.11,15.11,0,0,0,.56,11.26a15.55,15.55,0,0,0,15,19.7,14.91,14.91,0,0,0,1.9-.12A1.49,1.49,0,0,0,18,28.05,15.59,15.59,0,0,1,9.75,14.32Z"/><path class="cls-4" d="M14.32,33.76A15.49,15.49,0,0,1,2.63,28.47,1.49,1.49,0,0,0,0,29.59a15.86,15.86,0,0,0,.55,2.88A15.11,15.11,0,0,0,11.26,43,15.55,15.55,0,0,0,31,28a14.8,14.8,0,0,0-.12-1.9,1.49,1.49,0,0,0-2.79-.53A15.58,15.58,0,0,1,14.32,33.76Z"/><path class="cls-5" d="M33.76,29.2a15.49,15.49,0,0,1-5.29,11.69,1.49,1.49,0,0,0,1.12,2.62A15.86,15.86,0,0,0,32.47,43,15.11,15.11,0,0,0,43,32.26a15.55,15.55,0,0,0-15-19.7,14.8,14.8,0,0,0-1.9.12,1.49,1.49,0,0,0-.53,2.79A15.58,15.58,0,0,1,33.76,29.2Z"/></g></g></svg>