<svg xmlns="http://www.w3.org/2000/svg" viewBox="0 0 286.37 32.04"><defs><style>.cls-1,.cls-2{fill:#e5005c;}.cls-1,.cls-3,.cls-4{fill-rule:evenodd;}.cls-3{fill:#1a1a18;}.cls-4,.cls-5{fill:#6e6e6e;}</style></defs><g id="Layer_2" data-name="Layer 2"><g id="Layer_1-2" data-name="Layer 1"><path class="cls-1" d="M4.58,13.73V4.58H22.89V0H0V13.73ZM22.8,22.89V9.16H18.22V22.89ZM9.16,18.31H0v4.58H13.73V9.16H9.16Z"/><rect class="cls-2" y="27.47" width="22.89" height="4.58"/><path class="cls-3" d="M49.83,20.89c0-7.34-9.6-5.74-9.6-9.54,0-2.38,2-3,3.45-3a11.28,11.28,0,0,1,4.46.94l.41-3.61a16.38,16.38,0,0,0-5.24-.78c-3.86,0-7.66,1.79-7.66,6.68,0,7.25,9.6,5.52,9.6,9.7,0,2-2.22,2.82-3.89,2.82a10.14,10.14,0,0,1-5-1.35l-.4,4a20.62,20.62,0,0,0,5.61.84c4.43,0,8.22-1.82,8.22-6.62"/><polygon class="cls-3" points="68.47 8.69 68.47 5.23 51.53 5.23 51.53 8.69 57.8 8.69 57.8 27.14 62.2 27.14 62.2 8.69 68.47 8.69"/><polygon class="cls-3" points="84.26 27.14 84.26 23.68 75.66 23.68 75.66 17.53 83.47 17.53 83.47 14.08 75.66 14.08 75.66 8.69 84.19 8.69 84.19 5.23 71.27 5.23 71.27 27.14 84.26 27.14"/><path class="cls-3" d="M98.44,12.11c0,2.51-2,3.26-4.17,3.26H92.73V8.69h1.54c2.26,0,4.17.87,4.17,3.42m4.58-.26c0-5.24-4.36-6.62-9.13-6.62H88.34V27.14h4.39V18.82h1.85C99.26,18.82,103,17,103,11.85Z"/><path class="cls-4" d="M116.8,4.86c-7.13,0-11.55,4.45-11.55,11.51s4.52,11.14,11.55,11.14a15.18,15.18,0,0,0,5.11-.81l-.28-2.8a11.28,11.28,0,0,1-4.86,1c-5.18,0-8.16-3.64-8.16-8.63s3-8.7,8.12-8.7a9.87,9.87,0,0,1,4.84,1.07l.37-2.82a14,14,0,0,0-5.17-.91Z"/><path class="cls-4" d="M135.47,7.52c4.77,0,6.81,4.4,6.81,8.63s-2,8.7-6.81,8.7-6.81-4.4-6.81-8.7,2-8.63,6.81-8.63m10.16,8.63c0-6.27-3.45-11.29-10.16-11.29s-10.2,5-10.2,11.29c0,6.69,3.55,11.36,10.2,11.36S145.63,22.77,145.63,16.15Z"/><polygon class="cls-4" points="166.66 27.14 166.66 5.23 163.46 5.23 163.46 23.06 163.39 23.06 153.67 5.23 149.59 5.23 149.59 27.14 152.79 27.14 152.79 9.5 152.85 9.5 162.52 27.14 166.66 27.14"/><path class="cls-4" d="M184.07,21.11c0-6.87-9.85-6.09-9.85-10.2,0-2.63,2.23-3.39,4.11-3.39a10,10,0,0,1,4.24.88l.5-2.73a14.14,14.14,0,0,0-4.93-.81c-3.86,0-7.28,2-7.28,6.21,0,6.5,9.82,5.84,9.82,10.14,0,2.54-2.22,3.64-4.42,3.64a9.39,9.39,0,0,1-4.9-1.32l-.47,3a14.84,14.84,0,0,0,5.46,1c3.89,0,7.72-1.75,7.72-6.4"/><path class="cls-4" d="M205,19.35V5.23h-3.29V18.7c0,3.64-1.57,6.15-5.18,6.15s-5.15-2.51-5.15-6.19V5.23h-3.29V19.35c0,6.19,4.08,8.16,8.47,8.16s8.44-2,8.44-8.16"/><polygon class="cls-4" points="221.88 27.14 221.88 24.47 213.22 24.47 213.22 5.23 209.93 5.23 209.93 27.14 221.88 27.14"/><polygon class="cls-4" points="236.22 7.9 236.22 5.23 220.19 5.23 220.19 7.9 226.56 7.9 226.56 27.14 229.85 27.14 229.85 7.9 236.22 7.9"/><rect class="cls-5" x="238.77" y="5.23" width="3.29" height="21.9"/><polygon class="cls-4" points="263.74 27.14 263.74 5.23 260.54 5.23 260.54 23.06 260.48 23.06 250.75 5.23 246.67 5.23 246.67 27.14 249.87 27.14 249.87 9.5 249.94 9.5 259.6 27.14 263.74 27.14"/><path class="cls-4" d="M286.37,26.26V14.93H278.3V17.6h4.87v6.71a10.67,10.67,0,0,1-3.77.54c-5.27,0-8.16-3.64-8.16-8.63s3-8.7,8.41-8.7a13,13,0,0,1,5.65,1.17l.38-2.83a18.72,18.72,0,0,0-6.28-1c-7.12,0-11.55,4.45-11.55,11.51s4.52,11.14,11.55,11.14a20,20,0,0,0,7-1.25"/></g></g></svg>