<?xml version="1.0" encoding="utf-8"?>
<!-- Generator: Adobe Illustrator 22.0.0, SVG Export Plug-In . SVG Version: 6.00 Build 0)  -->
<svg version="1.1" id="Layer_1" xmlns="http://www.w3.org/2000/svg" xmlns:xlink="http://www.w3.org/1999/xlink" x="0px" y="0px"
	 viewBox="0 0 155 40" style="enable-background:new 0 0 155 40;" xml:space="preserve">
<style type="text/css">
	.st0{clip-path:url(#SVGID_2_);fill:url(#SVGID_3_);}
	.st1{clip-path:url(#SVGID_5_);fill:url(#SVGID_6_);}
	.st2{clip-path:url(#SVGID_8_);fill:url(#SVGID_9_);}
	.st3{clip-path:url(#SVGID_11_);fill:url(#SVGID_12_);}
	.st4{fill:#094B7E;}
</style>
<g>
	<g>
		<defs>
			<path id="SVGID_1_" d="M107.9,27.8c6.5,7.2,26.3,14.4,20-5.3l-1.9-0.8c-5.1-0.9-9-1.3-12-1.3C104.8,20.4,104.6,24.1,107.9,27.8"
				/>
		</defs>
		<clipPath id="SVGID_2_">
			<use xlink:href="#SVGID_1_"  style="overflow:visible;"/>
		</clipPath>
		
			<linearGradient id="SVGID_3_" gradientUnits="userSpaceOnUse" x1="-122.7219" y1="32.6819" x2="-122.2718" y2="32.6819" gradientTransform="matrix(40.0524 -21.2962 21.2962 40.0524 4330.9429 -3887.1025)">
			<stop  offset="0" style="stop-color:#15ADE4"/>
			<stop  offset="5.618000e-03" style="stop-color:#08AADE"/>
			<stop  offset="8.349428e-02" style="stop-color:#62A5D5"/>
			<stop  offset="0.2564" style="stop-color:#C391BF"/>
			<stop  offset="0.3483" style="stop-color:#ED83B1"/>
			<stop  offset="0.5843" style="stop-color:#EF9579"/>
			<stop  offset="0.6725" style="stop-color:#EE9477"/>
			<stop  offset="0.7508" style="stop-color:#EC9370"/>
			<stop  offset="0.8253" style="stop-color:#E68F65"/>
			<stop  offset="0.8974" style="stop-color:#DF8B54"/>
			<stop  offset="0.9673" style="stop-color:#DA873B"/>
			<stop  offset="1" style="stop-color:#D68431"/>
		</linearGradient>
		<polygon class="st0" points="95.5,25.2 127.7,8.1 143.2,37.4 111.1,54.5 		"/>
	</g>
</g>
<g>
	<g>
		<defs>
			<path id="SVGID_4_" d="M126.4,21.9l1.5,0.5c6.6-9.3-3-19.2-7.5-19.2C117.2,3.3,116.6,8.3,126.4,21.9"/>
		</defs>
		<clipPath id="SVGID_5_">
			<use xlink:href="#SVGID_4_"  style="overflow:visible;"/>
		</clipPath>
		
			<linearGradient id="SVGID_6_" gradientUnits="userSpaceOnUse" x1="-121.6163" y1="33.8204" x2="-121.1662" y2="33.8204" gradientTransform="matrix(32.9743 20.6046 -20.6046 32.9743 4823.731 1398.0109)">
			<stop  offset="0" style="stop-color:#7E97C4"/>
			<stop  offset="0.3989" style="stop-color:#EF934A"/>
			<stop  offset="0.6968" style="stop-color:#ED9247"/>
			<stop  offset="0.8418" style="stop-color:#E68F40"/>
			<stop  offset="0.9533" style="stop-color:#DB8837"/>
			<stop  offset="1" style="stop-color:#D68431"/>
		</linearGradient>
		<polygon class="st1" points="121.6,-4.7 143.1,8.7 129.5,30.5 108,17.1 		"/>
	</g>
</g>
<g>
	<g>
		<defs>
			<path id="SVGID_7_" d="M132.2,22.6l1.5-0.5c9.8-13.6,9.2-18.6,6-18.6C135.2,3.4,125.5,13.2,132.2,22.6"/>
		</defs>
		<clipPath id="SVGID_8_">
			<use xlink:href="#SVGID_7_"  style="overflow:visible;"/>
		</clipPath>
		
			<linearGradient id="SVGID_9_" gradientUnits="userSpaceOnUse" x1="-119.8117" y1="32.6884" x2="-119.3616" y2="32.6884" gradientTransform="matrix(-32.9746 20.6048 20.6048 32.9746 -4480.9414 1398.2671)">
			<stop  offset="0" style="stop-color:#7E97C4"/>
			<stop  offset="0.3989" style="stop-color:#EF934A"/>
			<stop  offset="0.6968" style="stop-color:#ED9247"/>
			<stop  offset="0.8418" style="stop-color:#E68F40"/>
			<stop  offset="0.9533" style="stop-color:#DB8837"/>
			<stop  offset="1" style="stop-color:#D68431"/>
		</linearGradient>
		<polygon class="st2" points="138.4,-4.6 116.9,8.8 130.5,30.6 152,17.2 		"/>
	</g>
</g>
<g>
	<g>
		<defs>
			<path id="SVGID_10_" d="M133.9,21.7l-1.9,0.8c-6.3,19.7,13.5,12.5,20,5.3c3.4-3.7,3.2-7.4-6.1-7.4
				C142.9,20.4,139,20.8,133.9,21.7"/>
		</defs>
		<clipPath id="SVGID_11_">
			<use xlink:href="#SVGID_10_"  style="overflow:visible;"/>
		</clipPath>
		
			<linearGradient id="SVGID_12_" gradientUnits="userSpaceOnUse" x1="-121.112" y1="33.538" x2="-120.6619" y2="33.538" gradientTransform="matrix(-40.05 -21.295 -21.295 40.05 -3988.0681 -3886.8779)">
			<stop  offset="0" style="stop-color:#15ADE4"/>
			<stop  offset="5.618000e-03" style="stop-color:#08AADE"/>
			<stop  offset="8.349428e-02" style="stop-color:#62A5D5"/>
			<stop  offset="0.2564" style="stop-color:#C391BF"/>
			<stop  offset="0.3483" style="stop-color:#ED83B1"/>
			<stop  offset="0.5843" style="stop-color:#EF9579"/>
			<stop  offset="0.6725" style="stop-color:#EE9477"/>
			<stop  offset="0.7508" style="stop-color:#EC9370"/>
			<stop  offset="0.8253" style="stop-color:#E68F65"/>
			<stop  offset="0.8974" style="stop-color:#DF8B54"/>
			<stop  offset="0.9673" style="stop-color:#DA873B"/>
			<stop  offset="1" style="stop-color:#D68431"/>
		</linearGradient>
		<polygon class="st3" points="164.4,25.2 132.2,8.1 116.7,37.4 148.8,54.5 		"/>
	</g>
</g>
<path class="st4" d="M27.3,16.3c0,0.9-0.9,1.4-2.8,1.4H20c-1.2,0-2-0.3-2.5-0.8l-3.2-3.5L11.1,17c-0.5,0.5-1.3,0.8-2.5,0.8H4.1
	c-1.8,0-2.7-0.5-2.7-1.4V5c0-0.5,0.3-0.8,0.8-1c0.5-0.2,1.2-0.4,1.9-0.4c0.8,0,1.4,0.1,1.9,0.4c0.5,0.2,0.8,0.6,0.8,1V15l5-5.5
	c0.6-0.7,1.5-1,2.5-1s1.9,0.4,2.5,1l4.9,5.4V4.9c0-0.4,0.3-0.8,0.9-1c0.5-0.2,1.1-0.4,1.9-0.4c0.7,0,1.4,0.1,1.9,0.4
	c0.5,0.2,0.8,0.6,0.8,1V16.3z"/>
<path class="st4" d="M47.5,17.7h-7.7c-2.6,0-4.9-0.3-6.9-0.9c-2.2-0.7-3.4-1.5-3.6-2.5V7.1c0-0.9,0.8-1.6,2.3-2.3
	c1.9-0.8,4.6-1.2,8-1.2h7.7c0.9,0,1.6,0.1,2.1,0.5C50,4.3,50.2,4.6,50.2,5c0,0.4-0.2,0.7-0.7,0.9c-0.5,0.3-1.2,0.4-2.1,0.4h-7.7
	c-1.5,0-2.7,0.1-3.6,0.3c-0.9,0.2-1.4,0.5-1.4,0.8v6.5c0.1,0.4,0.8,0.6,1.8,0.8c0.9,0.2,1.9,0.3,3.1,0.3h7.7c0.9,0,1.6,0.1,2.1,0.4
	c0.5,0.3,0.7,0.6,0.7,0.9c0,0.4-0.2,0.7-0.7,0.9C49.1,17.6,48.4,17.7,47.5,17.7 M43,10.6h-5.1c-0.9,0-1.5-0.1-2-0.4
	c-0.5-0.3-0.7-0.6-0.7-0.9c0-0.4,0.2-0.7,0.7-1c0.5-0.3,1.2-0.4,2-0.4H43c0.9,0,1.6,0.1,2.1,0.4c0.5,0.3,0.7,0.6,0.7,1
	c0,0.4-0.2,0.7-0.7,0.9C44.6,10.5,43.9,10.6,43,10.6"/>
<path class="st4" d="M73.1,13.9c0,0.9-0.8,1.6-2.4,2.4c-2,0.9-4.7,1.4-8,1.4H55c-1.8,0-2.7-0.5-2.7-1.4V5c0-0.9,0.9-1.4,2.7-1.4h7.7
	c2.6,0,4.8,0.3,6.8,0.8c2.2,0.6,3.4,1.4,3.6,2.3c0,0,0,0,0-0.1c0.1,0.2,0.1,0.4,0.1,0.6c0,0.8-0.7,1.5-2,2.2
	c1.1,0.5,1.8,1.2,1.9,1.9L73.1,13.9L73.1,13.9z M67.6,7.2l0-0.1c0-0.4-0.6-0.6-1.8-0.7c-0.4,0-1.4,0-3.2,0h-5V15h4.8
	c1.5,0,2.7-0.2,3.7-0.5c0.9-0.3,1.4-0.7,1.4-1.2v-1.5c-0.1-0.5-0.8-0.8-2-0.9c-0.5-0.1-2.1-0.1-4.8-0.1c-0.9,0-1.6-0.1-2.1-0.5
	C58.3,10,58,9.7,58,9.3c0-0.4,0.2-0.7,0.7-0.9c0.5-0.3,1.2-0.4,2-0.5c1.4,0,2.9,0,4.8,0C67.1,7.8,67.8,7.6,67.6,7.2"/>
<path class="st4" d="M97,13.9c0,0.9-0.8,1.6-2.4,2.4c-2,0.9-4.7,1.4-8,1.4h-7.7c-1.8,0-2.7-0.5-2.7-1.4V5c0-0.9,0.9-1.4,2.7-1.4h7.7
	c2.6,0,4.8,0.3,6.8,0.8C95.6,5,96.8,5.8,97,6.7c0,0,0,0,0-0.1c0.1,0.2,0.1,0.4,0.1,0.6c0,0.8-0.7,1.5-2,2.2c1.1,0.5,1.8,1.2,1.9,1.9
	V13.9z M91.5,7.2l0-0.1c0-0.4-0.6-0.6-1.8-0.7c-0.4,0-1.4,0-3.2,0h-5V15h4.8c1.5,0,2.7-0.2,3.7-0.5c0.9-0.3,1.4-0.7,1.4-1.2v-1.5
	c-0.1-0.5-0.8-0.8-2-0.9c-0.5-0.1-2.1-0.1-4.8-0.1c-0.9,0-1.6-0.1-2.1-0.5c-0.5-0.2-0.7-0.5-0.7-0.9c0-0.4,0.2-0.7,0.7-0.9
	c0.5-0.3,1.2-0.4,2-0.5c1.4,0,2.9,0,4.8,0C91,7.8,91.7,7.6,91.5,7.2"/>
<path class="st4" d="M11.4,25.2H7.2c-0.8,0-1.5,0.1-2,0.3s-0.7,0.4-0.7,0.6v7.7c0,0.4-0.1,0.6-0.5,0.9s-0.6,0.3-1.1,0.3
	c-0.4,0-0.8-0.1-1-0.3c-0.3-0.2-0.5-0.5-0.5-0.9v-7.9c0-0.7,0.5-1.4,1.3-1.9c1-0.7,2.5-1,4.4-1h4.2c0.5,0,0.9,0.1,1.1,0.4
	c0.2,0.2,0.4,0.5,0.4,0.8s-0.1,0.6-0.4,0.8C12.2,25,11.9,25.2,11.4,25.2 M8.9,28.8H6.1c-0.5,0-0.9-0.1-1.1-0.4S4.6,28,4.6,27.6
	c0-0.3,0.1-0.6,0.4-0.8c0.3-0.2,0.6-0.4,1.1-0.4h2.8c0.5,0,0.9,0.1,1.1,0.4s0.4,0.5,0.4,0.8c0,0.3-0.1,0.6-0.4,0.8
	C9.8,28.7,9.4,28.8,8.9,28.8"/>
<path class="st4" d="M25.3,32c0,0.7-0.5,1.4-1.3,2c-1,0.7-2.5,1-4.4,1c-1.4,0-2.7-0.2-3.7-0.8c-1.2-0.6-1.8-1.3-1.9-2.2v-6.3
	c0-0.8,0.5-1.4,1.3-2c1-0.7,2.5-1,4.4-1c1.4,0,2.7,0.3,3.9,0.9c1.2,0.6,1.8,1.3,1.9,2.2L25.3,32L25.3,32z M22.3,31.7v-5.6
	c0-0.4-0.4-0.6-0.9-0.8c-0.5-0.1-1.1-0.2-1.8-0.2c-1.8,0-2.7,0.4-2.7,0.9v5.7c0.1,0.3,0.4,0.5,1,0.7c0.5,0.1,1,0.2,1.7,0.2
	c0.9,0,1.5-0.1,2-0.3C22,32.2,22.3,32,22.3,31.7"/>
<path class="st4" d="M35.5,28.9c0.1,0.2,0.1,0.4,0.1,0.5c0,0.3-0.1,0.6-0.5,0.8c-0.3,0.2-0.7,0.3-1.1,0.3c-0.6,0-1-0.2-1.3-0.7
	l-2.7-4.5v8.4c0,0.4-0.1,0.6-0.5,0.9c-0.3,0.2-0.6,0.3-1,0.3c-0.4,0-0.8-0.1-1-0.3c-0.3-0.2-0.5-0.5-0.5-0.9V24
	c0-0.8,0.5-1.2,1.5-1.2H31c0.6,0,1.1,0.2,1.4,0.7L35.5,28.9z M38.7,33.8c0,0.4-0.1,0.6-0.5,0.9s-0.6,0.3-1,0.3c-0.4,0-0.8-0.1-1-0.3
	c-0.3-0.2-0.5-0.5-0.5-0.9V24c0-0.4,0.1-0.6,0.5-0.9c0.3-0.2,0.6-0.3,1-0.3c0.4,0,0.8,0.1,1,0.3c0.3,0.2,0.5,0.5,0.5,0.9V33.8z"/>
<path class="st4" d="M50,25.2h-8.4c-0.5,0-0.9-0.1-1.1-0.4c-0.3-0.2-0.4-0.5-0.4-0.8s0.1-0.6,0.4-0.8c0.3-0.2,0.6-0.4,1.1-0.4H50
	c0.5,0,0.9,0.1,1.1,0.4c0.2,0.2,0.4,0.5,0.4,0.8s-0.1,0.6-0.4,0.8C50.9,25.1,50.5,25.2,50,25.2 M47.2,35c-1,0-1.9-0.2-2.8-0.6
	c-0.9-0.5-1.4-1-1.5-1.6v-6.3c0-0.4,0.1-0.7,0.5-0.9c0.3-0.2,0.6-0.3,1-0.3c0.4,0,0.8,0.1,1,0.3c0.3,0.2,0.5,0.5,0.5,0.9v5.7
	c0,0.1,0.2,0.2,0.5,0.3c0.3,0.1,0.5,0.1,0.8,0.1c0.5,0,0.9,0.1,1.1,0.4c0.3,0.2,0.4,0.5,0.4,0.8c0,0.3-0.1,0.6-0.4,0.8
	C48.1,34.9,47.7,35,47.2,35"/>
<path class="st4" d="M64.2,33.7c0,0.4-0.1,0.7-0.5,0.9s-0.6,0.3-1,0.3c-0.4,0-0.8-0.1-1.1-0.3c-0.3-0.2-0.5-0.5-0.5-0.9v-7.9
	c0-0.5-0.9-0.8-2.6-0.7c-1.8,0-2.7,0.2-2.7,0.6v8c0,0.4-0.1,0.7-0.5,0.9c-0.3,0.2-0.6,0.3-1.1,0.3c-0.4,0-0.8-0.1-1-0.3
	c-0.3-0.2-0.5-0.5-0.5-0.9v-8c0-0.7,0.4-1.4,1.3-1.9c1-0.7,2.5-1,4.4-1.1c1.4,0,2.6,0.2,3.7,0.8c1.2,0.6,1.8,1.3,1.9,2.2L64.2,33.7
	L64.2,33.7z M59.5,28.9h-2c-0.5,0-0.9-0.1-1.1-0.4C56.1,28.3,56,28,56,27.7s0.1-0.6,0.4-0.8c0.3-0.2,0.6-0.4,1.1-0.4h2
	c0.5,0,0.9,0.1,1.1,0.4c0.2,0.2,0.4,0.5,0.4,0.8s-0.1,0.6-0.4,0.8C60.3,28.7,59.9,28.9,59.5,28.9"/>
<path class="st4" d="M69.8,33.8c0,0.4-0.1,0.7-0.5,0.9c-0.3,0.2-0.7,0.4-1.1,0.4c-0.4,0-0.8-0.1-1-0.3s-0.5-0.5-0.5-0.9V24
	c0-0.4,0.1-0.7,0.5-0.9c0.3-0.2,0.6-0.3,1-0.3s0.8,0.1,1.1,0.3c0.3,0.2,0.5,0.5,0.5,0.9V33.8z"/>
<path class="st4" d="M80.9,28.9c0.1,0.2,0.1,0.4,0.1,0.5c0,0.3-0.1,0.6-0.5,0.8c-0.3,0.2-0.7,0.3-1.1,0.3c-0.6,0-1-0.2-1.3-0.7
	l-2.7-4.5v8.4c0,0.4-0.1,0.6-0.5,0.9c-0.3,0.2-0.6,0.3-1,0.3c-0.4,0-0.8-0.1-1-0.3c-0.3-0.2-0.5-0.5-0.5-0.9V24
	c0-0.8,0.5-1.2,1.5-1.2h2.4c0.6,0,1.1,0.2,1.4,0.7L80.9,28.9z M84.2,33.8c0,0.4-0.1,0.6-0.5,0.9c-0.3,0.2-0.6,0.3-1,0.3
	c-0.4,0-0.8-0.1-1-0.3c-0.3-0.2-0.5-0.5-0.5-0.9V24c0-0.4,0.1-0.6,0.5-0.9c0.3-0.2,0.6-0.3,1-0.3s0.8,0.1,1,0.3
	c0.3,0.2,0.5,0.5,0.5,0.9V33.8z"/>
<path class="st4" d="M95.7,34.9h-4.2c-1.4,0-2.7-0.3-3.7-0.8c-1.2-0.6-1.8-1.3-1.9-2.2v-6.1c0-0.7,0.5-1.4,1.3-1.9
	c1-0.7,2.5-1,4.4-1h4.2c0.5,0,0.9,0.1,1.1,0.4c0.2,0.2,0.4,0.5,0.4,0.8s-0.1,0.6-0.4,0.8c-0.3,0.2-0.7,0.4-1.1,0.4h-4.2
	c-0.8,0-1.5,0.1-2,0.3c-0.5,0.2-0.7,0.4-0.7,0.6v5.5c0.1,0.3,0.4,0.5,1,0.7c0.5,0.1,1,0.2,1.7,0.2h4.2c0.5,0,0.9,0.1,1.1,0.4
	c0.2,0.2,0.4,0.5,0.4,0.8c0,0.3-0.1,0.6-0.4,0.8C96.5,34.8,96.1,34.9,95.7,34.9 M93.2,28.8h-2.8c-0.5,0-0.9-0.1-1.1-0.4
	c-0.3-0.2-0.4-0.5-0.4-0.8c0-0.3,0.1-0.6,0.4-0.8s0.6-0.4,1.1-0.4h2.8c0.5,0,0.9,0.1,1.1,0.4c0.3,0.2,0.4,0.5,0.4,0.8
	c0,0.3-0.1,0.6-0.4,0.8C94,28.7,93.7,28.8,93.2,28.8"/>
</svg>
