<svg xmlns="http://www.w3.org/2000/svg" viewBox="0 0 729.78 225"><defs><style>.cls-1{fill:#fd0;}</style></defs><g id="Layer_2" data-name="Layer 2"><g id="Layer_1-2" data-name="Layer 1"><path d="M528.62,215.08l50.84-54.48,9.41,9.41,10-10.07-9.74-9.74,75-80.38a12.9,12.9,0,0,0-18.86-17.6l-74.4,79.72-9.81-9.8-10,10.06,10.14,10.14-67.88,72.74h-8.47V132.3a132.31,132.31,0,0,0-264.61,0v82.78h-8.47l-67.88-72.74L154,132.2l-10-10.06-9.81,9.8L59.78,52.22a12.9,12.9,0,0,0-18.86,17.6l75,80.38-9.74,9.74,10,10.07,9.41-9.41,50.84,54.48H0V225H729.78v-9.92Z"/><rect class="cls-1" x="242.39" y="130.61" width="220.32" height="68.17" rx="34.08"/><rect x="260.74" y="158.49" width="54" height="12.42"/><rect x="390.35" y="158.49" width="54" height="12.42"/></g></g></svg>